<?xml version="1.0" encoding="utf-8"?>
<!-- Generator: Adobe Illustrator 22.0.1, SVG Export Plug-In . SVG Version: 6.00 Build 0)  -->
<svg version="1.1" id="Layer_1" xmlns="http://www.w3.org/2000/svg" xmlns:xlink="http://www.w3.org/1999/xlink" x="0px" y="0px"
	 viewBox="0 0 453.9 429.5" style="enable-background:new 0 0 453.9 429.5;" xml:space="preserve">
<style type="text/css">
	.st0{fill:#A0B3D9;}
</style>
<g>
	<path class="st0" d="M239.1,420.4c-8,0-16.1,0-24.1,0c-1.3-0.2-2.6-0.5-3.9-0.7c-7.4-1-14.9-1.5-22.3-2.9
		c-45.3-8.7-83.5-30.1-114.4-64.3c-26.6-29.4-43.4-63.7-50-102.9c-1.3-7.6-2.1-15.3-3.1-23c0-8,0-16.1,0-24.1
		c0.6-5.3,1.1-10.6,1.9-15.8c5.8-40.2,21.3-76.3,48.4-106.6c49-54.8,110.5-78,183.3-69.2c44.3,5.4,82.9,24.1,114.7,55.5
		c52.3,51.8,72.2,114.6,59.4,187c-8,45.1-30,83-63.9,113.8c-29.4,26.7-63.7,43.4-102.9,50C254.5,418.6,246.8,419.4,239.1,420.4z
		 M253.8,250.5c-0.1,0-0.1,0-0.2,0c0-18.7,0.4-37.5-0.1-56.2c-0.5-16.2-17.6-27.8-33.3-23.4c-12.8,3.6-19.9,13.5-19.9,28
		c-0.1,25.4,0,50.9,0,76.3c0,10.4-0.2,20.9,0.3,31.3c0.9,16.3,17.6,27.8,33.3,23.4c12.5-3.5,19.8-13.4,19.9-27.2
		C253.9,285.3,253.8,267.9,253.8,250.5z M252.8,126.7c0.1-14.5-10.8-25.1-26-25.1c-15.1,0-25.5,9.8-25.6,24.3
		c-0.2,14.5,10,24.6,25.1,24.9C241.2,151.1,252.7,140.7,252.8,126.7z"/>
</g>
</svg>
