<?xml version="1.0" encoding="utf-8"?>
<!-- Generator: Adobe Illustrator 22.0.1, SVG Export Plug-In . SVG Version: 6.00 Build 0)  -->
<svg version="1.1" id="Layer_1" xmlns="http://www.w3.org/2000/svg" xmlns:xlink="http://www.w3.org/1999/xlink" x="0px" y="0px"
	 viewBox="0 0 398.9 402.3" style="enable-background:new 0 0 398.9 402.3;" xml:space="preserve">
<style type="text/css">
	.st0{fill:#FFFFFF;}
</style>
<g>
	<path class="st0" d="M349.8,239.4c-7.3,10.9-14.6,21.8-21.8,32.8c-1.1,1.6-1.7,3.9-1.8,5.8c-0.2,6.4,0.2,12.8-0.2,19.1
		c-0.1,2.3-1.1,5-2.7,6.6c-7.8,8.1-15.7,16.1-23.9,23.8c-1.7,1.6-4.6,2.7-6.9,2.8c-9.5,0.3-19,0.1-28.5,0.1c-6.1,0-8.3-2.3-8.3-8.5
		c0-21.4,0-42.7,0-64.1v-4.3c-6.2,0-11.8,0-17.4,0c-6,0-8.2-2.2-8.2-8.2c0-15.9,0-31.7,0-47.6c0-5.9,2.3-8.2,8.2-8.2
		c20.2,0,40.5,0,60.7,0c3.9,0,6.3,1.5,8,5c5,10.2,10.2,20.3,15.1,30.5c1.1,2.3,2.4,3,4.9,3c5.5-0.2,11,0,16.5-0.1
		c3,0,5.8,0.5,7.4,3.4C352.5,234.3,351.5,236.9,349.8,239.4z"/>
	<path class="st0" d="M247.5,382.2c-36.5,9.2-72.5,7.3-108.1-4.9c-1.6-0.5-3.8-0.7-5.3-0.1c-18.3,8-36.9,14.6-56.9,16.6
		c-0.3,0-0.7,0.3-1,0.5H59.8c-2.9-0.6-5.8-1.2-8.7-1.9c-22.4-5.5-36.2-22.3-37.8-45.9c-1.5-21.6,3.9-41.9,11.6-61.7
		c14-35.8,34.8-67.6,58.3-97.8c5.4-6.9,11-13.6,16.7-20.7c3.3,2.8,6.4,5.4,9.7,8.3c-5.4,6.8-10.8,13.3-16,19.9
		c-21.6,27.8-40.7,57.1-54.4,89.7c-7.2,17.1-13,34.7-13.3,53.5c-0.1,5.1,0.3,10.3,1.4,15.3c3.6,16.3,14.9,25.9,31.6,28
		c15.5,1.9,30.3-1.2,45-5.7c5.2-1.6,10.3-3.6,16.4-5.7c-16.2-8-30.5-17.2-43.3-28.5c-12.9-11.4-24.2-24.2-33.7-39
		c3.5-2.3,6.9-4.5,10.5-6.9c29.7,43.5,70.2,69.9,122,78c38.6,6,75.4-0.6,109.8-19.2c70.4-38.1,96.1-112.3,91.4-164.2
		c-7.5,0-15.2-0.2-22.7,0.1c-4.5,0.2-7.2-1.6-9.3-5.4c-6.8-12.2-13.9-24.3-20.7-36.5c-1.2-2.1-2.4-3-4.9-3c-8.4,0.2-16.8,0-25.1,0.2
		c-1.5,0-3.5,1.2-4.4,2.4c-3.1,4.2-5.9,8.7-8.8,13.1c-1.6,2.5-3.9,3.7-6.9,3.6c-7.9-0.1-15.8,0-23.6,0c-4.9,0-7.3-2.4-7.4-7.5
		c-0.1-14.1-0.1-28.3,0-42.4c0-5.4,2.4-7.8,7.9-7.8c10.4-0.1,20.8,0.1,31.1-0.1c1.9,0,4.1-1,5.5-2.3c6.7-6.4,13.2-12.9,19.7-19.6
		c2.5-2.6,5.3-3.8,9-3.7c4.9,0.2,9.9,0.1,16,0.1c-29.9-31.8-65.5-50.2-107.5-56.4c-0.3,0.4-0.5,0.6-0.6,0.8
		c-0.8,9.7-0.8,9.7-10.3,12c-5.3,1.3-10.8,2.3-16,4c-3.6,1.2-6.9,3.4-10.2,5.4c-3.5,2.1-6.9,4.5-10.3,6.9c-3,2.2-5.9,2-9.1,0.4
		c-10.5-5.4-21.2-10.7-31.8-15.9c-1.4-0.7-3.5-1-4.8-0.4c-36.2,15.9-64,41.1-83.4,75.1c7,11.7,13.9,23.1,20.7,34.5
		c2.3,3.8,1.9,6.2-1.3,9.4c-4.6,4.6-9.1,9.3-13.8,13.8c-2,1.9-2.9,3.8-2.8,6.5c0.2,6,0.1,12,0,18c-0.1,5.3-2.3,7.5-7.6,7.5
		c-5.9,0-11.7,0-17.9,0c0.2,16.9,3,33.1,7.9,49.3c-3.9,1.3-7.8,2.5-12.5,4c-1.9-8-4.1-15.6-5.4-23.4C6,173.8,20.2,121.6,58.3,76.4
		c30.1-35.8,69.1-57,115.4-63.9C269.3-1.8,360.4,58.6,384.3,152C410.5,253.5,349.2,356.6,247.5,382.2z"/>
	<path class="st0" d="M144.2,145c-3,2.9-4.2,5.9-2.9,10c1.5,5,2.3,10.3,3.9,15.2c1.4,4.1,0.1,6.7-3.6,8.8
		c-4.3-7.2-8.5-14.6-13.1-21.7c-1.7-2.6-4.1-5-6.7-6.7c-7.1-4.6-14.4-8.8-21.8-13.2c2.1-3.4,4.3-5,8.4-3.6
		c5.2,1.8,10.7,2.5,15.9,4.1c3.9,1.1,6.7,0.1,9.4-2.7c16.4-16.5,32.8-32.9,49.3-49.3c3.7-3.7,7.5-7.4,11.6-10.6
		c4.4-3.5,9.6-5.5,15.6-6.4c-1.5,8.9-5.4,16-11.5,22C180.7,109,162.5,127,144.2,145z"/>
	<path class="st0" d="M193.3,178.7c-3.4-7.9-6.9-15.9-10.3-23.8c-2.7-6.2-5.2-12.4-8-18.5c-0.8-1.9-0.8-3.1,0.8-4.5
		c2.1-2,3.8-4.3,6.4-7.2c1,3.5,1.7,5.7,2.3,7.8c3.9,13,7.7,26,11.7,39C197.2,174.6,197.1,177.1,193.3,178.7z"/>
	<path class="st0" d="M154.8,97.3c-3,2.6-5.6,4.9-8.3,7c-0.6,0.5-1.9,0.5-2.7,0.1c-14.3-6.3-28.5-12.6-42.9-19
		c1.8-3.2,3.8-3.5,6.8-2.6c14.9,4.7,29.8,9,44.7,13.5C152.8,96.4,153.1,96.6,154.8,97.3z"/>
	<path class="st0" d="M204.6,277c0.1,3.9-1.3,6.5-4.4,8.9c-8.5,6.6-16.9,13.3-25.1,20.1c-1.3,1.1-2.2,3.2-2.4,4.9
		c-0.3,4-0.2,8-0.1,12c0,3-1.2,5.2-3.6,7c-7.8,5.8-15.6,11.6-23.4,17.5c-2.5,1.9-5,2.8-8,1.3c-3-1.5-3.5-4.3-3.5-7.3
		c0-19.1,0-38.2,0-57.3v-4.8c-8.2,0-15.7,0-23.2,0c-6.7,0-8.7-2-8.7-8.7c0-13.5,0-27,0-40.5c0-6.5,1.9-8.4,8.6-8.4
		c9.2,0,18.5,0.1,27.7,0c3.2,0,5.7,0.9,8,3.3c4.3,4.5,8.9,8.8,13.2,13.3c1.8,1.9,3.6,2.7,6.2,2.6c9.9-0.1,19.7-0.1,29.6,0
		c7,0,9,1.9,9,8.8C204.6,258.7,204.4,267.8,204.6,277z"/>
</g>
</svg>
