<?xml version="1.0" encoding="utf-8"?>
<!-- Generator: Adobe Illustrator 22.0.1, SVG Export Plug-In . SVG Version: 6.00 Build 0)  -->
<svg version="1.1" id="Layer_1" xmlns="http://www.w3.org/2000/svg" xmlns:xlink="http://www.w3.org/1999/xlink" x="0px" y="0px"
	 viewBox="0 0 24 24" style="enable-background:new 0 0 24 24;" xml:space="preserve">
<style type="text/css">
	.st0{fill:#FFFFFF;}
</style>
<path class="st0" d="M20,8.8v11H4v-12h4.1l1.8-2H15v-2H9l-1.8,2H4c-1.1,0-2,0.9-2,2v12c0,1.1,0.9,2,2,2h16c1.1,0,2-0.9,2-2v-11H20z
	 M20.7,7.8H22c0-3.3-2.7-6-6-6v1.3C18.6,3.1,20.7,5.2,20.7,7.8z M18,7.8h1.3c0-1.8-1.5-3.3-3.3-3.3v1.3C17.1,5.8,18,6.7,18,7.8z
	 M7,13.8c0,2.8,2.2,5,5,5s5-2.2,5-5s-2.2-5-5-5S7,11,7,13.8z M15,13.8c0,1.6-1.4,3-3,3s-3-1.4-3-3s1.4-3,3-3S15,12.1,15,13.8z"/>
</svg>
