<?xml version="1.0" encoding="utf-8"?>
<!-- Generator: Adobe Illustrator 22.0.1, SVG Export Plug-In . SVG Version: 6.00 Build 0)  -->
<svg version="1.1" id="Layer_1" xmlns="http://www.w3.org/2000/svg" xmlns:xlink="http://www.w3.org/1999/xlink" x="0px" y="0px"
	 viewBox="0 0 399.9 398.7" style="enable-background:new 0 0 399.9 398.7;" xml:space="preserve">
<style type="text/css">
	.st0{fill:#FFFFFF;}
</style>
<g>
	<path class="st0" d="M357.3,392c-99.5,0-199,0-298.5,0c-0.3-0.2-0.6-0.5-0.9-0.6c-21.4-4.7-33.6-19.7-33.6-41.5
		c0-37.9,0-75.7,0-113.6c0-1.3,0-2.7,0-4.1c122.9,0,245.3,0,367.8,0c0.1,0.7,0.3,1.1,0.3,1.6c0,39.9,0.2,79.7-0.2,119.6
		c-0.1,13-6,23.9-16.9,31C370,387.9,363.3,389.5,357.3,392z"/>
	<path class="st0" d="M8.5,105.5c0.2-0.6,0.5-1.1,0.7-1.7c2.4-10.1,8.7-16.3,18.7-18.7c4.1-1,8.8-3.4,12.2-2.2
		c3.2,1.1,5,6.1,7.3,9.5c13.3,19.6,26.6,39.2,40,58.9c0.8,1.1,1.5,2.2,1.1,2.9c-1.4,2.1-3.2,3.9-4.1,6.2
		c-7.1,17.4-14.1,34.9-21,52.4c-0.9,2.3-2,3.2-4.6,3.2c-11.3-0.2-22.7-0.1-34.3-0.1c-0.1-1.2-0.3-2.2-0.3-3.1
		c2.9-30.4-4-59.5-12.3-88.3c-1.2-4.3-2.3-8.7-3.5-13C8.5,109.5,8.5,107.5,8.5,105.5z"/>
	<path class="st0" d="M57.5,78c20.5-4.9,40.9-9.7,61.3-14.5c1.6-0.4,2.9-0.8,4.1,1.1c15.8,23.5,31.8,46.9,47.7,70.3
		c0.3,0.4,0.4,0.8,0.7,1.7c-9,2-17.7,4-26.4,6c-11.9,2.7-23.8,5.5-35.8,8c-1.1,0.2-3-0.3-3.6-1.2c-16-23.4-31.9-46.8-47.8-70.3
		C57.7,78.9,57.7,78.6,57.5,78z"/>
	<path class="st0" d="M215.5,40.5c14.1-3.4,28-6.7,42-10c6.4-1.5,12.9-3,19.3-4.6c1.8-0.5,2.9-0.3,4,1.4
		c16.1,23.9,32.3,47.7,48.5,71.6c0.2,0.3,0.3,0.7,0.6,1.5c-6.1,1.4-12.1,2.9-18.1,4.2c-12.8,2.9-25.5,5.8-38.3,8.6
		c-1.3,0.3-3.6-0.2-4.4-1.2c-17.7-23.3-35.2-46.6-52.8-70C216,41.7,215.9,41.2,215.5,40.5z"/>
	<path class="st0" d="M138.6,58.8c8.8-2.1,17.4-4.2,26-6.2c10.3-2.4,20.6-4.9,31-7.2c1.2-0.3,3.3,0.3,4,1.3
		c17.6,23.2,35.1,46.5,52.6,69.7c0.3,0.4,0.4,0.8,0.8,1.6c-12.5,2.9-24.7,5.7-36.9,8.5c-8.4,1.9-16.8,3.9-25.2,5.6
		c-1.1,0.2-3-0.4-3.6-1.3c-16-23.4-31.9-46.8-47.9-70.3C139.1,60,139,59.5,138.6,58.8z"/>
	<path class="st0" d="M296.1,21.4c5.8-1.4,11-2.6,16.3-3.9c12.6-3,25.2-6.1,37.9-8.9c12.4-2.7,24.5,4.5,27.9,16.8
		c4.8,17.2,9.2,34.5,13.7,51.7c1.4,5.5-0.9,9.3-6.4,10.7c-12.1,2.9-24.3,5.7-36.5,8.3c-1,0.2-2.9-1-3.6-2.1
		c-12.8-18.7-25.6-37.6-38.3-56.4C303.5,32.4,299.9,27.1,296.1,21.4z"/>
	<path class="st0" d="M167.6,152c-5.5,13.8-10.8,27.1-16.1,40.4c-2.8,6.9-5.5,13.9-8.4,20.8c-0.5,1.2-2.1,2.6-3.3,2.6
		c-19.6,0.1-39.2,0.1-58.8,0.1c-0.3,0-0.7-0.2-1.5-0.4c0.8-2,1.6-4,2.3-5.9c7.3-18.2,14.5-36.3,21.8-54.5c0.6-1.6,0.9-3.1,3.4-3.1
		C127,152,147,152,167.6,152z"/>
	<path class="st0" d="M239.4,215.9c4.9-12.3,9.7-24.1,14.4-35.9c3.4-8.5,6.7-16.9,10.2-25.3c0.5-1.1,2.1-2.6,3.3-2.6
		c19.6-0.1,39.2-0.1,58.8-0.1c0.3,0,0.7,0.1,1.3,0.3c-0.3,1-0.5,1.9-0.9,2.8c-7.7,19.3-15.4,38.7-23.3,58c-0.5,1.2-2.1,2.7-3.2,2.7
		C280,215.9,260,215.9,239.4,215.9z"/>
	<path class="st0" d="M159.5,215.6c8.6-21.4,17-42.4,25.4-63.5c20.9,0,41.6,0,62.5,0c-0.3,1-0.5,1.9-0.8,2.6
		c-7.8,19.4-15.6,38.9-23.3,58.3c-0.7,1.8-1.4,2.8-3.6,2.8c-19.5-0.1-39-0.1-58.4-0.1C160.8,215.9,160.4,215.7,159.5,215.6z"/>
	<path class="st0" d="M392.4,215.7c-24.4,0-48.3,0-72.7,0c0.4-1.2,0.6-2.2,1-3.2c7.7-19.2,15.4-38.4,23-57.7c0.8-1.9,1.6-3,4-2.9
		c12,0.1,24,0,36,0.1c5.2,0,8.6,2.9,8.6,7.8C392.5,178.3,392.4,196.8,392.4,215.7z"/>
</g>
</svg>
