<?xml version="1.0" encoding="utf-8"?>
<!-- Generator: Adobe Illustrator 22.0.1, SVG Export Plug-In . SVG Version: 6.00 Build 0)  -->
<svg version="1.1" id="Layer_1" xmlns="http://www.w3.org/2000/svg" xmlns:xlink="http://www.w3.org/1999/xlink" x="0px" y="0px"
	 viewBox="0 0 551.9 544.3" style="enable-background:new 0 0 551.9 544.3;" xml:space="preserve">
<style type="text/css">
	.st0{fill:#FFFFFF;}
</style>
<g>
	<g>
		<path class="st0" d="M231,19.3c3,0,6,0,9,0c12.8,4.6,17.8,14,16.8,27.2c-0.2,2.7,0.3,5.4-0.1,8c-0.4,2.5-0.8,5.3-2.2,7.4
			c-15.9,23.7-26.2,49.5-28.6,77.9c-5.6,64.2,17.4,116.2,68.4,155.3c28.7,22,61.8,32.7,98.1,33.5c1.9,0,4.9,1,5.6,2.5
			c9.4,19.8,22.9,36.1,39,50.7c10.7,9.7,14,22.4,10.3,36.5c-4.6,17.6-19.2,27.8-39.1,27.8c-115.2,0-230.3,0-345.5,0
			c-1.5,0-3,0-4.5-0.1c-16.8-1.1-30-11.3-34.7-26.9c-0.5-1.6-1-3.1-1.5-4.7c0-3.7,0-7.3,0-11c2.3-9.8,7.2-17.9,14.8-24.7
			c32.6-29.1,48.9-65.7,49.2-109.5c0.1-20-0.1-40,0.1-60c0.6-61.6,40.4-117.4,98.4-137.9c9.5-3.4,19.4-5.6,29.5-8.5
			c0-5.4,0.3-11.3-0.1-17.1C213.1,32.6,218.3,23.6,231,19.3z"/>
	</g>
	<g>
		<path class="st0" d="M410.3,20.1c-1.1-0.1-2.2-0.6-3.3-0.9h-23c-1.3,0.3-2.5,0.8-3.8,0.9c-64.9,6.7-117.6,60.5-123,125.5
			c-3.1,37.8,9,73.3,31.2,100.4l42.5-40.6c-6.3-1.5-12.3-3.8-17-6.6l10-18.4c5.8,4.2,13.3,6.6,21.1,6.6c2.1,0,4.1-0.2,5.9-0.5
			l16.3-15.6c0.9-3.2,1.3-6.9,1.2-10.9c-4.8,6.9-12.7,11.1-23.9,11.1c-19.9,0-32.5-13.3-32.5-33.4c0-21.7,14.9-35.3,37.6-35.3
			c25,0,40.9,16.5,43.2,43.9l12.9-12.3c4.5-18.2,15.5-28.9,32.2-30.8L488.2,55C467,35.9,440,23.4,410.3,20.1z M529,121.4
			c-5.7-20.8-15.9-39.5-29.5-55l-40.8,39c16.2,6.1,25,23.1,25,49.4c0,33.5-14.3,52.1-40.1,52.1c-25.1,0-39.2-17.3-40.2-48.7
			l-12.2,11.7c-4.7,21.1-18.8,34.9-38.8,37.1l-53.2,50.8c21.8,21.1,50.7,35.1,83.4,38.3c65.2,6.3,127.2-35.6,145.5-98.5
			c2.7-9.2,4-18.8,6-28.3v-23C532.3,138,531.2,129.6,529,121.4z M350.6,123.3c-9.1,0-14.6,5.3-14.6,14.5c0,8.8,5.1,14,14.2,14
			c10,0,15.4-6.1,15.2-14.5C365.5,129.9,360.8,123.3,350.6,123.3z"/>
	</g>
	<g>
		<path class="st0" d="M227,531.3c-10-3.3-20.8-5.4-30-10.2c-21.5-11.3-34.4-29.7-40-53.6c52.3,0,104.1,0,156.5,0
			c-1.5,9.6-5.2,18.2-10.3,26.1c-13.4,20.8-32.3,33.2-56.8,36.9c-0.8,0.1-1.5,0.5-2.3,0.8C238.3,531.3,232.7,531.3,227,531.3z"/>
	</g>
</g>
<g>
	<path class="st0" d="M458.1,154.8c0,23.4-4.3,33.2-14.5,33.2c-10.4,0-14.6-9.8-14.6-33.2c0-10.5,0.8-18.3,2.7-23.6
		c2-5.8,5.3-8.8,9.9-9.5c0.6-0.1,1.3-0.1,2-0.1C453.8,121.6,458.1,131.2,458.1,154.8z"/>
</g>
</svg>
