<?xml version="1.0" encoding="utf-8"?>
<!-- Generator: Adobe Illustrator 22.0.1, SVG Export Plug-In . SVG Version: 6.00 Build 0)  -->
<svg version="1.1" id="Layer_1" xmlns="http://www.w3.org/2000/svg" xmlns:xlink="http://www.w3.org/1999/xlink" x="0px" y="0px"
	 viewBox="0 0 527.9 523.3" style="enable-background:new 0 0 527.9 523.3;" xml:space="preserve">
<style type="text/css">
	.st0{fill:#FFFFFF;}
</style>
<g>
	<path class="st0" d="M483.8,374.8c-12.5-39.8-24.9-79.6-37.4-119.4c-1-3.2-0.7-5,2.1-7.2c12.5-10,11.7-28.6-1.5-37.7
		c-3-2.1-3.6-3.8-2.7-7.4c6.9-27.2,13.9-54.3,19.9-81.7c1.8-8.3,1.6-17.5,0.2-25.9c-2.5-15.3-12.2-25.6-26.7-31.1
		c-1.2-0.5-2.4-0.9-3.6-1.4c-0.1,0-0.2-0.2-1-0.9V13.9h-15.5v48.3c-14.6,3.2-25.5,11.1-32,25.9c-6.6-14.3-17.1-22.7-31.9-25.7V13.9
		h-16.5c0.1,15,0.1,30,0.3,45c0,3.1-0.9,4.3-3.9,5.4c-15.9,5.8-26,17.1-27.5,34.1c-0.8,9.3-0.2,19.2,1.8,28.3
		c5.6,25.5,12.2,50.8,18.6,76.1c0.9,3.6,0.6,5.5-2.8,7.8c-12.8,8.6-13.9,27.3-2,37.1c3.4,2.8,3.6,5,2.4,8.8
		c-21.6,68.7-43.1,137.4-64.6,206.2c-4.3,13.6-2.2,26.2,6.9,37.3c10.3,12.6,25.4,13.4,37.2,2.3c5.7-5.3,8.7-5.3,14.5,0
		c11,10.2,24.1,10.3,35,0.2c6-5.6,8.8-5.6,14.8-0.1c10.9,10.2,24,10.2,35,0c6-5.5,8.7-5.5,14.8,0.1c11,10.1,24.1,10.1,35-0.2
		c5.7-5.4,8.8-5.4,14.5-0.1c12.2,11.4,27.9,10.4,37.7-3.1c3.9-5.3,5.8-12.1,8.5-18.2v-11.6C503.5,437.7,493.7,406.2,483.8,374.8z
		 M307.1,477c-0.7,3.7-1.9,6.2-5.9,7.6c-3.3,1.2-6.1,4-9,6.4c-4.7,3.9-9.1,3.8-13-0.8c-6.3-7.3-6.9-15.5-4-24.5
		c17.7-56.1,35.2-112.2,52.8-168.3c3.7-11.8,7.4-23.7,11.1-35.5c2.7-8.7,2.7-8.7,12.5-7.5c-6.6,33.2-13.2,66-19.8,98.9
		C323.5,394.5,315.2,435.7,307.1,477z M377.2,487.8c-3.8-1.7-7.3-4-11.1-4.8c-8.6-2-16.2,0.2-22.7,6.4c-6,5.8-8.7,5-15.3,0.5
		c-6.3-4.3-5.7-9-4.4-15c14.6-72.3,29.1-144.7,43.5-217c1.4-7.2,6.4-2.6,10.1-4.3V487.8z M385,237.8c-15.3,0-30.6,0-46,0
		c-6,0-9.6-2.9-9.6-7.8c-0.1-4.9,3.5-8,9.4-8c31.1,0,62.3,0,93.4,0c5.6,0,9.1,3.1,9.2,7.8c0.1,4.8-3.6,8-9.4,8
		C416.3,237.8,400.6,237.8,385,237.8z M445.4,487.5c-10.5,7.5-10.3,7.8-20.4-0.1c-8.9-6.9-19.1-6.7-31.3,0.9V254.1h9.1
		c2.9,14.6,5.9,29.1,8.8,43.7c12.1,60.7,24.3,121.4,36.5,182C448.7,483.1,448.5,485.2,445.4,487.5z M491.7,490.1
		c-3.9,4.6-8.4,4.7-13.1,1c-3.6-2.9-7.8-5-11.5-7.7c-1.3-1-2.6-2.8-2.9-4.4c-10.1-50.1-20.1-100.2-30.1-150.3
		c-4.7-23.7-9.5-47.4-14.2-71.2c-0.2-0.9-0.3-1.9-0.4-3.1c9.6-1.1,9.6-1.1,12.2,7.2c21.3,68.1,42.6,136.3,64,204.4
		C498.4,474.8,497.8,482.9,491.7,490.1z"/>
	<path class="st0" d="M288.5,201.1c-10.2-40.7-20.5-81.3-30.5-122c-1.3-5.1-3.8-8.1-8.6-10.1c-14.9-6.2-29.6-12.7-44.5-18.9
		c-2.6-1.1-3.7-2.3-3.6-5.3c0.2-6.8-0.1-13.6,0.1-20.3c0.2-4.9-1.5-8.5-5.8-10.7h-85.3c-3.9,2.7-5.3,6.4-5,11.2
		c0.3,6.4-0.1,12.9,0.2,19.4c0.2,3.4-1.1,4.8-4.1,6C86.6,56.6,71.8,63.1,57,69.3c-4.4,1.8-6.9,4.6-8,9.3
		C38.8,119.8,28.4,160.9,18.2,202c-2,7.8,1.1,11.7,9.2,11.8c11,0.1,22,0,32.9,0c10.5,0,11.2-0.6,14.2-10.6c3-10,6-19.9,9-29.8
		c1,1.7,1.3,3.2,1.4,4.8c1.4,21.4,2.9,42.8,4.2,64.3c0.6,9.1,2.8,11.4,11.8,11.4h104.6c9.4,0,11.6-2,12.2-11.6
		c1.1-16.9,2.1-33.8,3.3-50.7c0.4-6,0.9-12,1.4-17.9c4.3,10.8,7.5,21.5,10.8,32.3c2,6.4,3.8,7.8,10.4,7.8c11.6,0.1,23.3,0,34.9,0
		C287.7,213.8,290.7,210,288.5,201.1z M153.4,142.1c-9.7-27.2-19-53.2-28.5-79.8h57C172.4,88.7,163.1,114.8,153.4,142.1z M185,45.6
		h-63.5V30.3H185V45.6z"/>
	<path class="st0" d="M217.3,281.3c0,72.3,0,144.6,0,216.9c0,9.5-2.2,11.6-11.7,11.6c-8.6,0-17.1,0-25.7,0c-7.3,0-9.6-1.8-10.8-8.9
		c-5.1-31.8-10.1-63.7-15.2-95.5c-0.1-0.6-0.2-1.2-0.4-1.7c-0.2,0-0.4,0-0.6,0c-1.9,12.1-3.9,24.1-5.8,36.2
		c-3.3,20.7-6.5,41.4-9.8,62.1c-0.9,5.4-3.7,7.8-9.3,7.9c-9.7,0.1-19.4,0.1-29.1,0c-6.8,0-9.8-2.9-9.8-9.7c-0.1-15,0-30,0-45V282.2
		c0-10.3,2.1-12.5,12.5-12.5h104.1C215,269.8,217.3,272.1,217.3,281.3z"/>
</g>
</svg>
