<?xml version="1.0" encoding="utf-8"?>
<!-- Generator: Adobe Illustrator 22.0.1, SVG Export Plug-In . SVG Version: 6.00 Build 0)  -->
<svg version="1.1" id="Layer_1" xmlns="http://www.w3.org/2000/svg" xmlns:xlink="http://www.w3.org/1999/xlink" x="0px" y="0px"
	 viewBox="0 0 409.9 413.3" style="enable-background:new 0 0 409.9 413.3;" xml:space="preserve">
<style type="text/css">
	.st0{fill:#FFFFFF;}
</style>
<g>
	<path class="st0" d="M395.5,149.4c-4.8-13.9-17.1-22.2-33-22.2c-104.6,0-209.3,0-313.9,0c-0.9,0-1.8,0-2.6,0
		c-15.5,0.7-27.8,10.7-31.3,25.5c-0.3,1.5-0.7,2.9-1.1,4.3v6c0.2,0.7,0.5,1.4,0.7,2.1c2,11.4,8.3,19.6,18.6,24.7
		c5.1,2.6,10.3,5.1,15.4,7.7c4.4,2.3,10.4,3.6,12.7,7.3c2.2,3.5,0.4,9.5,0.6,14.3c0.5,9.5,0,19.2,2,28.3
		c7.3,33.1,36.2,55.7,70.2,55.8c47.8,0.1,95.5,0,143.3,0c3.4,0,6.7-0.3,10.1-0.7c31.2-3.5,58.4-30.4,61.5-61.6
		c1.1-11,0.7-22.2,0.8-33.3c0-2.6,0.8-3.9,3.2-5.1c8.9-4.3,17.7-8.7,26.5-13.2C394.1,181.6,400.8,165,395.5,149.4z M61.5,186.5
		c-9.1-4.6-18-8.6-26.2-13.5c-5.9-3.6-7.8-11.4-5.7-18c2.1-6.8,8.1-11.4,15.4-11.6c5.3-0.1,10.7,0,16.5,0V186.5z M374.7,173.8
		c-8,4.5-16.4,8.3-25,12.5v-42.7c6.5,0,12.8-0.5,19.1,0.1c6.3,0.6,11.6,6.3,12.9,12.5C383.2,163.1,380.7,170.4,374.7,173.8z"/>
	<path class="st0" d="M333.1,389c-1.2-4.1-4.1-5.7-10.1-5.6c-3.1,0-6.2,0-9.6,0c0.3-1,0.4-1.6,0.7-2.1c4.6-8.6,4.4-17.2,0.4-25.9
		c-5.7-12.5-14-23.3-23.2-33.4c-3.3-3.6-8.3-3.7-11.6,0c-9.3,10.5-17.9,21.5-23.6,34.5c-3.5,8-3.3,16,0.4,23.9
		c0.4,0.9,0.7,1.8,1,2.8h-23.7c-0.1-0.3-0.2-0.5-0.2-0.5c0.3-0.8,0.7-1.6,1-2.4c3.4-7.7,3.8-15.4,0.5-23.3
		c-5.7-13.3-14.4-24.5-24-35.1c-3.2-3.5-8.2-3.5-11.3,0c-9.6,10.6-18.3,21.8-24,35.1c-3.3,7.8-3,15.6,0.5,23.3
		c0.4,0.9,0.8,1.9,1.2,2.9h-24.1c0.4-0.9,0.5-1.5,0.8-2c4.1-8.5,4.2-17,0.3-25.6c-5.8-12.5-14.1-23.3-23.2-33.5
		c-3.4-3.8-8.4-3.6-11.9,0.2c-8.6,9.6-16.5,19.8-22.1,31.5c-2.5,5.2-4.5,10.7-3.5,16.6c0.7,4.3,2.1,8.6,3.3,13.2c-1.8,0-3.7,0-5.7,0
		c-2.1,0-4.3-0.2-6.4,0c-5.5,0.4-9.2,5.8-6.9,10.7c1,2.1,3.3,3.5,5.1,5.2h244.5C332.8,396.1,334.3,393.2,333.1,389z M131.2,382.2
		c-8.4,3.2-18.3-1.2-20.7-9.9c-0.8-2.8-1.1-6.6,0.2-9c4.2-8.1,9.2-15.8,13.9-23.7c0.6,0,1.2,0.1,1.8,0.1c4.4,7.1,9.3,14.1,13.2,21.5
		C143.9,369.6,139.9,378.8,131.2,382.2z M216.7,378.7c-4.6,4.5-10.2,5.7-16.3,3.7c-8.9-2.9-13.4-12.5-9.1-20.8
		c3.9-7.6,8.9-14.6,13.8-22.5c6.6,8.6,12.6,16.1,15.8,25.3C222.7,369.8,220.6,374.7,216.7,378.7z M297.1,378.3
		c-4.4,4.6-11.2,6.1-17.2,4c-6.8-2.4-13.5-11.6-8.7-20.7c1.9-3.5,3.8-7,5.9-10.4c2.5-3.8,5.3-7.5,8.7-12.2c4.9,7.9,9.7,15,13.8,22.5
		C302.9,367.4,301.6,373.5,297.1,378.3z"/>
	<path class="st0" d="M157.5,25.6c-0.3,4.7-3.1,9.3-6.8,13.2c-2.1,2.3-4.6,4.2-6.7,6.5c-3.2,3.4-3.2,6.1,0.1,9.4
		c1.9,1.9,4.1,3.7,6.1,5.6c10,9.7,10,23.1-0.1,32.7c-1.6,1.5-3.6,2.8-5,4.5c-1.5,1.9-2.9,4.1-3.5,6.3c-1.3,4.8-4.6,7.8-8.9,7.3
		c-4.4-0.5-7.9-4.5-7.1-9.4c0.7-3.9,2.3-7.9,4.5-11.2c2.3-3.5,5.8-6.1,8.8-9.1c3.4-3.4,3.5-6.3,0.1-9.7c-2-2-4.3-3.8-6.4-5.8
		c-9.8-9.5-9.6-23.1,0.3-32.5c1.7-1.6,3.8-3,5.3-4.8c1.4-1.7,2.8-3.6,3.3-5.7c1.3-5.3,4.3-8.2,8.8-7.8
		C154.7,15.7,157.6,19.5,157.5,25.6z"/>
	<path class="st0" d="M253.5,100.7c0.2-4.2,2.8-8.6,6.3-12.4c2.4-2.6,5.1-4.7,7.6-7.2c2.8-2.8,2.9-5.7,0.2-8.6c-1.9-2-4-3.7-6.1-5.6
		c-10.7-9.7-10.8-24-0.1-33.8c1.6-1.4,3.4-2.6,4.7-4.3c1.4-1.8,2.7-3.9,3.3-6c1.3-5,4.7-8,9.1-7.5c4.5,0.6,7.5,4.9,7,10
		c-0.7,6.5-4.4,11.3-8.9,15.6c-1.8,1.7-3.7,3.3-5.4,5.2c-2.3,2.6-2.4,5.5,0.2,8c2,2,4.2,3.9,6.3,5.9c10.7,10.1,10.5,23.8-0.5,33.7
		c-1.7,1.5-3.6,2.8-5,4.5c-1.2,1.5-2.3,3.3-2.7,5.1c-1.2,5.3-4.3,8.2-8.8,7.8C256.3,110.8,253.4,107.1,253.5,100.7z"/>
	<path class="st0" d="M221.4,26.1c-0.2,4-2.7,8.2-6.1,12c-2.3,2.5-4.9,4.6-7.2,7.1c-3.4,3.6-3.4,6.2,0.1,9.7c2.1,2.1,4.5,4,6.6,6.1
		c9.4,9.5,9.1,22.8-0.5,31.9c-1.7,1.6-3.8,2.9-5.2,4.8c-1.5,1.9-2.8,4.1-3.4,6.4c-1.1,4.4-4.1,7.3-8.3,7.2c-4.1-0.1-7.2-3.2-7.7-7.7
		c-0.6-5.5,1.8-10,5.2-14c2.4-2.8,5.3-5.3,8-7.9c3.6-3.5,3.7-6.4,0.2-10c-2.1-2.1-4.5-3.9-6.6-6.1c-9.2-9.1-9.1-22.7,0.2-31.7
		c2-1.9,4.3-3.5,6.1-5.6c1.3-1.4,2.4-3.3,2.8-5.1c1.2-5.5,4.4-8.5,9-8C218.8,15.8,221.6,19.6,221.4,26.1z"/>
</g>
</svg>
