<?xml version="1.0" encoding="utf-8"?>
<!-- Generator: Adobe Illustrator 22.0.1, SVG Export Plug-In . SVG Version: 6.00 Build 0)  -->
<svg version="1.1" id="Layer_1" xmlns="http://www.w3.org/2000/svg" xmlns:xlink="http://www.w3.org/1999/xlink" x="0px" y="0px"
	 viewBox="0 0 509.2 400.7" style="enable-background:new 0 0 509.2 400.7;" xml:space="preserve">
<style type="text/css">
	.st0{fill:#536fa6;}
</style>
<g>
	<path class="st0" d="M318.5,400.8c0-55.8,0-111.1,0-166.7c16.4,0,32.6,0,49.2,0c2.1-22.2,4.1-44.1,6.2-66.5c-17.5,0-34.9,0-53,0
		c0-3.4,0-6.2,0-9c0-6.3-0.1-12.4,0-18.7c0.2-10.3,5.4-15.2,15.7-15.3c10.5-0.1,21,0,31.4,0c1.5,0,3,0,4.7,0c0-19.3,0-37.9,0-57
		c-0.7-0.1-1.3-0.3-1.8-0.3c-18.2,0-36.5-0.5-54.7,0.1c-21,0.7-39.3,7.6-51.9,25.4c-9.7,13.4-12.9,28.9-13.1,45.1
		c-0.1,8.1,0,16.1,0,24.2c0,1.5,0,3,0,5c-11.1,0-21.8,0-32.7,0c0,22.4,0,44.4,0,66.8c10.9,0,21.8,0,32.9,0c0,55.7,0,110.8,0,166.7
		c-1.6,0.1-3.1,0.2-4.7,0.2c-46.5,0-93,0-139.3,0c-31.1,0-53.1-22-53.1-53c0-98.2,0-196.5,0-294.7c0-31.1,22-53.1,53-53.1
		C205.5,0,303.8,0,402,0c31.3,0,53.2,22,53.2,53.3c0,98.1,0,196.2,0,294.2c0,31.3-21.9,53.2-53.3,53.3c-26.1,0-52.2,0-78.4,0
		C321.8,400.8,320.4,400.8,318.5,400.8z"/>
</g>
</svg>
