<?xml version="1.0" encoding="utf-8"?>
<!-- Generator: Adobe Illustrator 22.0.1, SVG Export Plug-In . SVG Version: 6.00 Build 0)  -->
<svg version="1.1" id="Layer_1" xmlns="http://www.w3.org/2000/svg" xmlns:xlink="http://www.w3.org/1999/xlink" x="0px" y="0px"
	 viewBox="0 0 225.9 397.3" style="enable-background:new 0 0 225.9 397.3;" xml:space="preserve">
<style type="text/css">
	.st0{fill:#536fa6;}
</style>
<g>
	<path class="st0" d="M76,391.3c0.1-1.1,0.2-2.2,0.2-3.4c0-54.9,0-109.7,0-164.6c0-1.1,0-2.2,0-3.7c-18.6,0-36.9,0-55.5,0
		c0-22.9,0-45.4,0-68.3c18.3,0,36.7,0,55.5,0c0-1.8,0-3.3,0-4.7c0.2-20-0.4-40,0.7-60c1.2-23.8,9.3-44.9,28.1-60.8
		c14.7-12.5,32.3-18.1,51.2-18.3c18-0.2,35.9,1.3,53.9,2.1c0.7,0,1.4,0.3,2.3,0.5c0,20.2,0,40.2,0,60.8c-1.5,0-3,0-4.4,0
		c-13.1,0.2-26.3-0.2-39.3,0.8c-14.1,1-22.3,8.5-23.1,22.5c-1.1,18.8-0.3,37.7-0.3,56.9c20.2,0,40.6,0,61.5,0
		c-2.9,23-5.7,45.4-8.5,68.2c-17.8,0-35.4,0-53.2,0c-0.1,1.5-0.3,2.7-0.3,3.9c0,54.9,0,109.7,0,164.6c0,1.1,0.2,2.2,0.3,3.3
		C122,391.3,99,391.3,76,391.3z"/>
</g>
</svg>
