<?xml version="1.0" encoding="utf-8"?>
<!-- Generator: Adobe Illustrator 22.0.1, SVG Export Plug-In . SVG Version: 6.00 Build 0)  -->
<svg version="1.1" id="Layer_1" xmlns="http://www.w3.org/2000/svg" xmlns:xlink="http://www.w3.org/1999/xlink" x="0px" y="0px"
	 viewBox="0 0 508.6 400.1" style="enable-background:new 0 0 508.6 400.1;" xml:space="preserve">
<style type="text/css">
	.st0{fill:#A0B3D9;}
</style>
<g>
	<path class="st0" d="M370.7,196.9c0,18.3,0,36.3,0,54.4c0,28.2,0,56.4,0,84.6c0,8.7-5.6,16-13.5,18.5c-7.9,2.5-17,0-21.3-7.1
		c-2.4-4.1-3.9-9.3-3.9-14.1c-0.3-43.6-0.2-87.3-0.1-130.9c0-4-1.1-5.9-4.9-7.7c-21.8-10.7-33.7-28.3-33.7-52.7
		c0-24.6,12.1-42.3,34.2-52.9c3.5-1.7,4.6-3.5,4.4-7.1c-0.3-5.6-0.2-11.2,0-16.8c0.3-11.6,8.7-20.3,19.6-20.2
		c11,0.1,19.2,8.8,19.3,20.4c0,6.2-0.1,12.4,0.1,18.6c0.1,1.4,1.2,3.4,2.4,4c23.4,10.7,36.3,28.9,36.1,54.5
		c-0.2,25.6-13.5,43.6-37.1,53.8C371.8,196.3,371.5,196.6,370.7,196.9z M351.4,161.1c10.8,0,19.3-8.7,19.3-19.4
		c0-10.7-8.7-19.2-19.5-19.2c-10.7,0-19.4,8.7-19.4,19.4C332,152.6,340.6,161.2,351.4,161.1z"/>
	<path class="st0" d="M137.9,203.1c0-1.7,0-3.5,0-5.3c0-44.2,0-88.5,0-132.7c0-13.5,11.2-22.6,23.9-19.7c8.9,2,14.8,9.7,14.9,19.7
		c0.1,9.2,0,18.5,0,27.7c0,35.3,0,70.6-0.1,105.9c0,3.3,1,4.8,4.1,6.3c22.2,10.7,34.5,28.4,34.5,53.2c0,24.8-12.3,42.5-34.6,53.1
		c-2.9,1.4-4.1,2.7-4,5.9c0.3,5.9,0.2,11.8,0.1,17.7c-0.2,11.6-8.7,20.3-19.6,20.2c-11-0.1-19.2-8.8-19.3-20.5
		c0-6.2,0.1-12.4-0.1-18.6c-0.1-1.4-1.2-3.4-2.4-4c-23.3-10.6-36.1-28.7-36.1-54.1c0.1-25.8,13.4-43.9,37.1-54.2
		C136.8,203.7,137.2,203.5,137.9,203.1z M157.5,277.5c10.7-0.1,19.4-8.9,19.2-19.5c-0.2-10.7-8.9-19.2-19.6-19.1
		c-10.7,0.1-19.3,8.8-19.2,19.5C138,269.1,146.8,277.6,157.5,277.5z"/>
</g>
</svg>
