<?xml version="1.0" encoding="utf-8"?>
<!-- Generator: Adobe Illustrator 22.0.1, SVG Export Plug-In . SVG Version: 6.00 Build 0)  -->
<svg version="1.1" id="Layer_1" xmlns="http://www.w3.org/2000/svg" xmlns:xlink="http://www.w3.org/1999/xlink" x="0px" y="0px"
	 viewBox="0 0 399.9 403.3" style="enable-background:new 0 0 399.9 403.3;" xml:space="preserve">
<style type="text/css">
	.st0{fill:#606060;}
	.st1{fill:#FFFFFF;}
</style>
<path class="st0" d="M128.9,140.8v17.8c0-6.1,0.1-12.2,0.1-18.3C128.9,140.4,128.9,140.6,128.9,140.8z M135.4,140.7c0,3,0,5.9,0,8.9
	v-8.8C135.4,140.8,135.4,140.7,135.4,140.7z M154.5,139.8c0,9.1,0,17.6,0,19.7c0.1-0.3,0.1-0.6,0.1-0.9v-17.8
	C154.6,140.5,154.6,140.1,154.5,139.8z M148.1,140.8v17.8c0,0.2,0,0.5,0.1,0.7c0-4.1,0-11.5,0-19.3
	C148.1,140.3,148.1,140.5,148.1,140.8z M167.3,140.8v15.6c0-4.4,0-10.2,0-16.1C167.3,140.5,167.3,140.6,167.3,140.8z M173.8,140.6
	c0,6.2,0,12.4-0.1,18.6c0-0.2,0.1-0.4,0.1-0.7v-17.8C173.8,140.7,173.8,140.7,173.8,140.6z M167.3,140.8v15.6c0-4.4,0-10.2,0-16.1
	C167.3,140.5,167.3,140.6,167.3,140.8z M173.8,140.6c0,6.2,0,12.4-0.1,18.6c0-0.2,0.1-0.4,0.1-0.7v-17.8
	C173.8,140.7,173.8,140.7,173.8,140.6z M173.8,140.6c0,6.2,0,12.4-0.1,18.6c0-0.2,0.1-0.4,0.1-0.7v-17.8
	C173.8,140.7,173.8,140.7,173.8,140.6z M167.3,140.8v15.6c0-4.4,0-10.2,0-16.1C167.3,140.5,167.3,140.6,167.3,140.8z"/>
<g>
	<path class="st1" d="M390.3,182.3c-3.8-40.7-19.6-76.7-46.9-107.3c-36.2-40.6-81.7-62.4-136-65.1c-34.7-1.7-67.7,5.6-98.1,22.3
		c-54.1,29.8-87.2,75.2-98.9,136c-1.4,7.3-2,14.8-3,22.2v22.5c1,7.4,1.6,14.8,3,22.2C23,299.5,59,346.3,117.9,375.4
		c21.1,10.4,43.7,16,67.3,17.6c1,0.1,1.9,0.4,2.9,0.6h22.5c6.4-0.8,12.9-1.4,19.3-2.4c43.6-7.4,80.8-26.9,110.6-59.6
		C379,289.2,395.6,239.1,390.3,182.3z M154.6,81.7c6.9-2.2,13.8-4.3,20.9-5.8c17.6-3.5,35.2-3.1,52.7,1c4,0.9,6.1,3.2,6.1,6.4
		c0,4.2-3.7,6.8-8.3,6.1c-7.1-1-14.3-2.3-21.5-2.8c-13.8-0.9-27.4,1-40.5,5.3c-1.8,0.6-3.5,1.2-5.3,1.7c-3.9,1-7-0.5-8.1-3.9
		C149.4,86.3,150.9,82.9,154.6,81.7z M117.5,292c-2.8,2.5-6.5,2.5-9.3-0.8c-5.1-5.8-10.3-11.6-14.7-18c-14.8-21.8-22-46-22.1-73.6
		c0.3-25.8,8.3-50.5,23.9-72.6c2.5-3.5,6-4.3,9.1-2.3c3.2,2,3.9,5.9,1.4,9.6c-6.1,8.9-11.5,18.2-14.8,28.5
		c-13.9,42.6-6.6,81.2,22.5,115.5c1.3,1.5,2.7,2.9,4,4.5C120.2,285.9,120.1,289.6,117.5,292z M172,281.5c0.4,7.7,1.2,15.5,0.4,23.2
		c-1.2,11.3-11,18.9-22.2,18.4c-11-0.5-19.9-9.4-20.3-20.7c-0.2-6.1,0.4-12.2,0.7-18.3c1.5-29.7,2.9-59.4,4.5-89.1
		c0.1-2.8-0.7-4.7-2.6-6.5c-4.5-4.3-9-8.6-13.2-13.3c-1.5-1.7-2.9-4.3-2.9-6.5c-0.2-18.5-0.1-37-0.1-55.5c0-2.9,0.8-5.8,3.8-6.7
		c1.9-0.6,4.9-0.5,6.1,0.7c1.6,1.6,2.7,4.5,2.7,6.8c0.1,8.8,0.2,17.5,0.2,26.3c0,6.1,0,12.2-0.1,18.3v0.1c0,1.8,1.5,3.2,3.3,3.2
		c1.8,0,3.3-1.5,3.3-3.3v-9c0-3,0-5.9,0-8.9c0-8.9,0-17.9,0-26.8c0-1.1,0-2.3,0.3-3.3c0.8-3,2.8-4.7,5.9-4.8c2.9-0.1,5.1,1.3,6,4.1
		c0.5,1.5,0.6,3.2,0.6,4.8c0,4.2,0,15.1,0,25.4c0,7.8,0,15.2,0,19.3c0.3,1.5,1.6,2.6,3.2,2.6c1.5,0,2.7-1,3.1-2.3
		c0-2.1,0-10.6,0-19.7v0c0-11.4,0-23.7,0-25.6c0-1,0-2,0.2-3c0.7-3.5,3.2-5.8,6.4-5.7c3.4,0.1,6,2.6,6.1,6.3
		c0.1,4.6,0.1,16.9,0.1,28.4c0,5.9,0,11.7,0,16.1v2.1c0,1.8,1.5,3.3,3.3,3.3c1.6,0,2.9-1.1,3.2-2.6c0,0,0,0,0,0
		c0-6.2,0.1-12.4,0.1-18.6c0-8.9,0-17.9,0.1-26.8c0-1.9,0.3-4.3,1.5-5.5c1.4-1.4,4-2.6,5.8-2.3c1.8,0.3,3.6,2.3,4.8,4
		c0.8,1.2,0.6,3.1,0.6,4.7c0,17.4,0,34.7,0.1,52.1c0,3.8-1.2,6.7-3.9,9.3c-4.5,4.3-9,8.7-13.2,13.3c-1,1-1.8,2.8-1.7,4.2
		C169.1,222.9,170.6,252.2,172,281.5z M213.3,328.7c-9.3,0.3-18.7,0.3-28.1,0c-4.5-0.2-6.9-3.3-6.4-7.1c0.4-3.6,3.2-5.6,7.6-5.4
		c4.4,0.2,8.7,0.5,13,0.7c4.4-0.3,8.6-0.5,12.8-0.7c4.6-0.2,7.5,1.9,7.8,5.7C220.4,325.5,217.9,328.6,213.3,328.7z M267.2,260.8
		c0.6,13.6,1.4,27.2,1.8,40.8c0.3,10.9-7.3,19.4-18.3,21.3c-10,1.7-20.7-4.3-23.8-14c-1.1-3.5-1.2-7.4-1.1-11.1
		c0.6-15.5,1.4-31,1.8-40.7c1-22.7,1.7-39.7,2.5-56.6c0.1-2.3-0.5-3.5-2.5-4.8c-8.9-5.9-13.5-14.3-14.9-24.8
		c-2.3-16.7,1.8-32.4,7.8-47.5c4.6-11.7,14.2-17.6,26.8-17.6c12.2,0,21.6,5.7,26.4,17c5.5,13,9.2,26.7,8.7,41.1
		c-0.4,13.4-4.4,25-16.5,32.6c-0.9,0.6-1.5,2.5-1.4,3.8C265.4,220.4,266.3,240.6,267.2,260.8z M291,290.8c-4.2,4.4-9.6,4.1-11.6-0.7
		c-1.4-3.1,0.2-5.4,2-7.8c5.6-7.2,12-13.9,16.5-21.7c22.6-39.5,22.3-79.3-0.3-118.8c-2.7-4.7-6.3-9-9.4-13.5
		c-2.8-3.9-2.7-7.7,0.3-10c3.2-2.5,6.8-1.7,10,2.3c18.4,22.9,28,49,28.9,80C327.5,234.4,315.5,265.1,291,290.8z"/>
</g>
<path class="st1" d="M167.3,140.3c0,5.9,0,11.7,0,16.1v-15.6C167.3,140.6,167.3,140.5,167.3,140.3z"/>
<path class="st1" d="M173.8,140.8v17.8c0,0.2,0,0.5-0.1,0.7c0-6.2,0.1-12.4,0.1-18.6C173.8,140.7,173.8,140.7,173.8,140.8z"/>
<path class="st1" d="M148.2,140c0,7.8,0,15.2,0,19.3c-0.1-0.2-0.1-0.5-0.1-0.7v-17.8C148.1,140.5,148.1,140.3,148.2,140z"/>
<path class="st1" d="M154.6,140.8v17.8c0,0.3-0.1,0.6-0.1,0.9c0-2.1,0-10.6,0-19.7C154.6,140.1,154.6,140.5,154.6,140.8z"/>
<path class="st1" d="M128.9,140.2c0,6.1,0,12.2-0.1,18.3v-17.8C128.9,140.6,128.9,140.4,128.9,140.2z"/>
<path class="st1" d="M135.4,140.8v8.8c0-3,0-5.9,0-8.9C135.4,140.7,135.4,140.8,135.4,140.8z"/>
</svg>
