<?xml version="1.0" encoding="utf-8"?>
<!-- Generator: Adobe Illustrator 22.0.1, SVG Export Plug-In . SVG Version: 6.00 Build 0)  -->
<svg version="1.1" id="Layer_1" xmlns="http://www.w3.org/2000/svg" xmlns:xlink="http://www.w3.org/1999/xlink" x="0px" y="0px"
	 viewBox="0 0 509.2 400.7" style="enable-background:new 0 0 509.2 400.7;" xml:space="preserve">
<style type="text/css">
	.st0{fill:#536fa6;}
</style>
<g>
	<path class="st0" d="M509.1,49.4c0-2.6-0.2-5.3-0.8-7.9C502.6,17.1,476.5-0.1,445-0.1c-127,0-253.9,0-380.9,0
		c-4.4,0-8.9,0.3-13.2,1C22,5.2,0,26.1,0,49.2c0,100.7,0,201.4,0,302.2c0,2.5,0.3,5,0.8,7.5c5.6,25.3,33.6,41.8,63.1,41.7
		c63.5-0.2,127.1,0,190.6,0c63.6,0,127.3,0,190.9,0c4.3,0,8.7-0.3,12.9-1c28.9-4.4,50.7-25.1,50.7-48.3
		C509.1,250.6,509.1,150,509.1,49.4z M466.6,167.3c-0.3,0.2-0.7,0.3-1,0.5c-0.7-0.8-1.4-1.7-2.3-2.4c-21.4-16.9-42.9-33.8-64.4-50.6
		c-0.9-0.7-2-1.6-3-2.3c-8.2-5.6-20-5.6-28.2,0c-1,0.7-2,1.5-2.9,2.3c-48.2,37.9-96.3,75.7-144.5,113.7c-0.8,0.7-1.6,1.6-2.4,2.5
		c-1.4-1-2.3-1.7-3-2.3c-17-13.4-34-26.8-51.1-40.2c-6.9-5.4-16.9-6.7-25.1-3.1c-2.3,0.9-4.4,2.4-6.3,3.9
		c-28.9,22.7-57.8,45.4-86.7,68.1c-0.8,0.6-1.5,1.5-2.7,2.6c-0.3-1.1-0.4-1.7-0.5-2.2c-0.1-0.4,0-0.8,0-1.3c0-68.5,0-137.1,0-205.5
		c0-5.1,1.9-9.5,6.6-13c4-2.9,8.6-4.5,14.1-4.6c0.6,0,1.3,0,1.9,0c126.3,0,252.7,0,379,0c6.6,0,12.3,1.5,16.9,5.3
		c3.7,3,5.5,6.7,5.7,10.8c0,0.6,0,1.4,0,2V167.3z"/>
	<path class="st0" d="M154.4,66.5c-18.4,0-33.5,15-33.5,33.4s15,33.5,33.4,33.5c18.4,0,33.5-15,33.5-33.4
		C187.9,81.7,172.9,66.7,154.4,66.5z"/>
</g>
</svg>
