<?xml version="1.0" encoding="utf-8"?>
<!-- Generator: Adobe Illustrator 22.0.1, SVG Export Plug-In . SVG Version: 6.00 Build 0)  -->
<svg version="1.1" id="Layer_1" xmlns="http://www.w3.org/2000/svg" xmlns:xlink="http://www.w3.org/1999/xlink" x="0px" y="0px"
	 viewBox="0 0 427.9 427.3" style="enable-background:new 0 0 427.9 427.3;" xml:space="preserve">
<style type="text/css">
	.st0{fill:#FFFFFF;}
</style>
<g>
	<path class="st0" d="M412.1,387.6c-0.7-0.6-0.9-2.4-0.7-3.5c0.9-6.2,2.3-12.3,2.8-18.6c0.3-4.1,0.4-9.2-1.7-12.3
		c-6-8.7-13.1-16.8-20.1-24.8c-1.1-1.2-4.4-1.5-6.1-0.9c-1.6,0.6-3.2,3-3.4,4.8c-0.2,1.8,1.1,4,2.4,5.6c4.8,6.1,10,11.8,14.7,17.9
		c1.4,1.8,2.7,4.3,2.5,6.4c-0.7,7.2-2.1,14.4-3.3,21.5h-12.1c0.8-5,1.3-9.8,2.3-14.5c0.9-4.3,0.1-7.6-2.8-11
		c-16.2-19.2-32.2-38.4-48.1-57.8c-1.5-1.8-2.8-4.3-3.1-6.7c-3.5-23.3-6.9-46.6-10.2-70c-1.1-8-3-16.2-2.5-24.1
		c2-28.8,2.9-57.5,0.6-86.3c-0.3-3.3-0.6-6.6-4.4-7.7c-3.9-1.2-6.1,1.2-8.2,4.1c-5.1,7.3-10.4,14.5-15.6,21.8
		c-4.2,5.8-6.2,6.3-12.3,2.6c-16.3-9.9-32.5-19.9-48.7-29.8c-5.3-3.3-6.8-6.3-4.8-9.8c2.1-3.6,5.7-3.8,11.1-0.5
		c13.4,8.2,26.8,16.4,40.2,24.6c4.6,2.8,7.1,2.3,10.3-1.9c2.5-3.3,4.9-6.6,7.2-10.1c2.2-3.3,1.7-6.5-1-8.5c-2.8-2.1-6.2-1.5-8.7,1.7
		c-1.6,2.1-3.1,4.3-4.8,6.5c-13-7.9-25.7-15.7-38.6-23.6c4.5-3.9,7.3-8.5,7.3-14.4c0-6.5,0.1-13.1,0-19.6c-0.1-4.4-2.3-6.5-6.8-6.6
		c-7.3-0.1-14.7-0.1-22,0c-4.9,0-7.1,2.2-7.2,7.1c-0.1,4.4,0.1,8.8-0.1,13.2c-0.3,7.7,0.7,14.9,7.3,20c-12,11.7-7.8,25.4,4.8,32.5
		c16.6,9.4,32.6,19.8,48.8,29.7c10.6,6.5,19.7,4.6,27.1-5.5c2.4-3.3,4.8-6.6,7.4-10.3c0.3,0.9,0.5,1.2,0.5,1.6
		c-0.3,20.1-0.6,40.2-1.2,60.3c-0.1,3.3-1.3,6.8-3,9.6c-13.5,22.3-27.3,44.5-41.1,66.7c-3.1,5-4.6,10.3-4.5,16.2
		c0.6,23.7,1,47.5,1.5,71.2c0,1.7,0,3.4,0,5.2c-7.1,0.2-13.6,0.5-18.7,5.5c-5.2,5.2-6.1,11.5-4.7,18.3h-50.7
		c0.8-6.2-0.5-11.5-4.6-16c-4.2-4.6-9.8-5.4-15.7-6.2c0-1.5,0-2.7,0-3.9c0.1-25.1,0.3-50.1,0-75.2c0-4.4-1.5-9.2-3.5-13.2
		c-3.1-6.3-7.2-12.1-11-18.1c-2.5-4-5.9-5-9-3c-3,2-3.5,5.2-1.2,9.1c3.4,5.7,7.2,11.2,10.4,17.1c1.4,2.6,2.4,5.7,2.4,8.6
		c0.1,26.9,0,53.9-0.1,80.8c0,7.7,1.4,9.2,9.2,9.8c2.4,0.2,4.8,0.3,7.1,0.9c3.3,0.9,4.5,3.5,4.1,6.8c-0.4,3.4-3,2.7-5.2,2.7
		c-6,0-12,0-18,0c-7.8,0-9.3-1.5-9.3-9.4c0.1-29.5,0.2-58.9,0.1-88.4c0-2.9-0.9-6.1-2.4-8.6c-7.5-12.6-15.3-25-23-37.5
		c-0.8-1.3-1.7-2.9-1.6-4.3c0.4-5.6,1.1-11.3,1.8-18.1c3.5,5.7,6.4,10.4,9.4,15.1c0.8,1.3,2,3.2,3.1,3.4c2.3,0.3,5.1,0.2,6.9-0.9
		c2.8-1.9,2.4-5.1,0.7-7.9c-5-8.2-9.9-16.4-15.2-24.4c-2.4-3.6-3.3-7.2-3.3-11.6c-0.1-15.2-0.5-30.4-0.9-45.6
		c-0.1-4.1-0.4-8.3-0.7-13c3.8,3.8,7.1,7.1,10.4,10.3c6.3,6,14.4,7.1,22,2.8c3.4-1.9,6.6-4,9.9-6c14.3-8.8,28.6-17.6,43-26.3
		c7.2-4.4,11.1-10.7,9.4-19c-0.9-4.4-3.9-8.4-6.2-12.9c3.5-3,5.9-7.7,6-13.3c0.1-6.5,0.2-13.1,0-19.6c-0.1-4.5-2.4-6.5-6.9-6.5
		c-7.3-0.1-14.7-0.1-22,0c-4.9,0-6.9,2.1-7,7.1c-0.1,5.1,0.1,10.1-0.1,15.2c-0.3,7.2,1.3,13.5,7.5,18.1c-0.7,0.6-1.1,1-1.7,1.4
		c-12,7.4-24.1,14.7-36.1,22.2c-2.3,1.4-3.3,0.3-4.6-1.1c-9.1-9.5-18.3-19-27.5-28.5c-2.9-3-5.8-6.1-8.8-9.2
		c15.3-12.3,19.6-23.7,14.4-38c-4.1-11.4-16.5-19.7-28.7-19.2c-13.4,0.5-24.2,9-28.1,22.2C61.8,46,67.1,57.8,81.5,67.8
		c-0.9,0.7-1.6,1.4-2.5,2c-14.9,11.5-29.8,22.9-44.7,34.3c-4.7,3.6-7.8,7.9-8.5,13.9c-2.5,21.6-5,43.1-7.4,64.7
		c-1.2,10.6,5.3,19.2,15.1,20.5c10.5,1.4,19-5.2,20.4-16.1c2.3-17.8,4.2-35.7,6.4-53.6c0.2-1.7,0.3-3.9,1.4-4.8
		c6.4-5.3,13.2-10.3,20.2-15.7c0.3,1.5,0.6,2.3,0.7,3.2c1,13.1,2.5,26.3,2.9,39.5c0.5,16.2,1.2,32.6,0,48.8
		c-1.9,25.5-5.4,50.9-8.4,76.3c-0.3,2.3-1.5,4.8-3,6.5c-18.5,20-37,39.8-55.7,59.6c-5.2,5.5-7.1,11.6-5.7,19
		c1.3,6.5,2.2,13.1,3.2,19.7c0.2,1.1,0.1,2.4-0.4,3.3c-1.8,3.2-3.8,6.3-5.7,9.5v7.2c2.4,7.2,7.2,12,14.4,14.4H405
		c7.2-2.4,12-7.2,14.4-14.4v-6.4C417.9,394.8,416,390.7,412.1,387.6z M228.4,54.5h11.8c0,5.1,0.3,10.1-0.1,15
		c-0.3,3.2-2.9,4.9-6,4.7c-3.4-0.2-5.4-2.5-5.6-5.8C228.2,64,228.4,59.4,228.4,54.5z M77.8,101.1c-8.1,6.3-16.2,12.6-24.4,18.8
		c-2.8,2.1-4.2,4.5-4.5,8c-2,18.5-4.2,37-6.4,55.5c-0.1,0.9-0.3,1.8-0.5,2.8c-0.8,3.8-3.3,5.7-6.7,5.3c-3.3-0.4-5.3-3.2-5-7
		c0.3-3.8,0.8-7.7,1.3-11.5c2.1-17.4,4.1-34.9,6.3-52.3c0.2-2,1.1-4.4,2.5-5.5c12.2-9.7,24.6-19.1,37.5-29c0.8,4.5,1.7,8.1,2.1,11.8
		C80,98.8,78.8,100.3,77.8,101.1z M191.2,54.6h11.9c0,4.7,0.2,9.1-0.1,13.5c-0.2,3.8-2.8,6.3-6,6.2c-3.2-0.1-5.7-2.6-5.8-6.4
		C191,63.6,191.2,59.2,191.2,54.6z M37.4,368.8c1.1,4.9,1.6,9.9,2.4,15.1h-12c-1.2-7.4-2.7-14.5-3.3-21.8c-0.2-2.3,1.4-5.4,3.2-7.3
		c18.9-20.5,37.9-40.8,57-61.1c2.7-2.9,4-6,4.4-9.9c2.7-25.7,6-51.3,8.2-77.1c1.2-13.5,0.8-27.2,0.6-40.8c-0.4-27.9-3.1-55.6-8.4-83
		c-0.6-3.4-0.3-6.2,2.9-7.9c3.3-1.7,5.8-0.2,8.2,2.2c12.9,13.5,25.9,26.9,38.9,40.3c4.5,4.7,6.2,4.9,11.8,1.5
		c13.8-8.4,27.5-16.9,41.2-25.2c1.5-0.9,3.3-2.1,4.7-1.9c2.1,0.4,4.9,1.5,5.7,3.2c0.8,1.7-0.2,4.4-1,6.5c-0.4,1-2,1.7-3.1,2.4
		c-16.6,10.2-33.2,20.3-49.8,30.4c-5.2,3.2-7,3-11.2-1.3c-6.3-6.5-12.6-13-18.9-19.6c-2.4-2.5-4.9-4.8-8.7-3c-3.9,1.9-3.6,5.4-3.2,9
		c2.8,28.1,4.3,56.4,2.6,84.6c-1.1,18.2-3.8,36.3-5.8,54.4c-1.2,10.6-2.2,21.2-3.7,31.8c-0.4,2.8-1.8,5.9-3.7,8
		c-18.5,20.1-37.2,40.1-55.9,59.9C37.6,361.4,36.5,364.5,37.4,368.8z M133.7,288.7c0,26.8-0.1,53.5-0.2,80.3c0,4.9,0,9.8,0,14.9H52
		c-0.8-5.4-1.8-10.6-2.3-15.9c-0.1-1.3,1.1-2.9,2.1-3.9c16.7-18,33.1-36.2,50.3-53.6c7.3-7.4,10.5-15.5,11-25.5
		c0.5-9,1.9-18,2.9-26.9c0.3,0,0.6,0,1,0c5.4,8.7,10.8,17.4,16,26.1C133.7,285.3,133.7,287.1,133.7,288.7z M288.2,373.7
		c0.1,7.5-1.4,9.1-8.9,9.5c-6.9,0.3-13.8,0.7-20.8,0.9c-4.1,0.1-6.4-2-6.6-5.4c-0.2-3.4,1.9-5.9,5.8-6.4c3.6-0.4,7.2-0.3,10.8-0.7
		c6-0.5,7.7-2.4,7.6-8.4c-0.4-22-0.3-44-1.6-65.9c-0.8-13.2,2.1-24.5,9.7-35.4c9.8-14.1,18.2-29.1,27.8-44.6
		c0.9,6.3,1.9,11.5,2.4,16.8c0.2,1.4-0.6,3.1-1.4,4.3c-7.9,13-16,25.8-23.8,38.8c-1.5,2.6-2.5,5.9-2.5,8.9
		C287,315.3,287.7,344.5,288.2,373.7z M377.1,370.1c-1,4.4-1.5,8.9-2.2,13.7h-74.5c-0.6-29.3-0.9-58.7-1.9-88
		c-0.2-7.7,1.2-14.2,5.7-20.5c4.5-6.3,8.3-13.2,12.5-19.9c0.3,0.1,0.6,0.2,0.9,0.3c1.9,13,3.9,26,5.7,39.1c0.7,5.4,2.8,9.8,6.3,13.9
		c15.2,18.2,30.4,36.4,45.6,54.6C376.8,365.4,377.8,367.3,377.1,370.1z"/>
	<path class="st0" d="M24.2,420.1H9.8v-14.4C12.2,412.9,17,417.7,24.2,420.1z"/>
	<path class="st0" d="M419.4,405.7v14.4H405C412.2,417.7,417,412.9,419.4,405.7z"/>
	<path class="st0" d="M352.8,208.2c0.7-0.5,1.1-1.5,1.6-2.3c11.6-17.4,23.1-34.9,34.6-52.3c6.2-9.4,5.9-16.6-1.2-25.1
		c-16.1-19.5-32.3-39-48.4-58.5c-1.1-1.3-2.1-2.5-3.2-3.8c13-10.1,17.2-22.6,12.2-36.3c-4.2-11.5-16.3-19.7-28.6-19.3
		c-13.4,0.4-24.7,9.4-28.3,22.4c-3.9,14.1,1.8,25.2,18.8,36.2c-1,1.5-2.1,3-3.2,4.5c-1.1,1.5-2.2,3-3.2,4.6
		c-2.2,3.5-1.8,6.8,1.1,8.8c2.8,2,6.2,1.3,8.7-2c1.8-2.3,3.5-4.7,5.1-7.1c1.7-2.5,3.9-4.1,7.1-3.4c3.2,0.7,4.3,3.1,4.8,6.1
		c6.3,33.2,6.8,66.7,5.1,100.3c-0.5,8.8-1.9,17.7-0.8,26.3c3.3,27.2,7.6,54.3,11.6,81.5c0.2,1.4,0.4,3.1,1.2,4.1
		c6.6,8.2,13.3,16.3,20.2,24.3c2.5,2.9,6.6,2.5,8.7-0.4c2.2-2.9,1.5-5.8-0.7-8.4c-5.1-6.2-10.3-12.2-15.3-18.5
		c-1.3-1.7-2.5-3.9-2.8-6c-3.1-20.4-5.9-40.9-8.9-61.3C348.3,217.2,347.1,211.9,352.8,208.2z M347.6,194.5c0-4.3,0.1-8,0-11.8
		c-0.3-7.8,2.1-14.4,6.9-20.6c3.8-4.8,6.8-10.2,10.3-15.2c2.3-3.4,2.1-6.4-0.5-9.4c-4.7-5.6-9.5-11.1-13.9-17
		c-1.5-2-2.5-4.6-2.9-7.1c-0.9-5.2-1.2-10.5-1.8-15.8c0.3-0.1,0.6-0.2,0.9-0.3c11.1,13.4,22.2,26.8,33.3,40.3c2,2.5,2,5.2,0.3,7.8
		C369.4,161.6,358.6,177.8,347.6,194.5z M349,147.5v-9.4c1.7,2,2.8,3.3,4,4.8c-1.2,1.7-2.3,3.3-3.3,4.9
		C349.4,147.7,349.2,147.6,349,147.5z"/>
</g>
</svg>
