<?xml version="1.0" encoding="utf-8"?>
<!-- Generator: Adobe Illustrator 22.0.1, SVG Export Plug-In . SVG Version: 6.00 Build 0)  -->
<svg version="1.1" id="Layer_1" xmlns="http://www.w3.org/2000/svg" xmlns:xlink="http://www.w3.org/1999/xlink" x="0px" y="0px"
	 viewBox="0 0 277.5 349.6" style="enable-background:new 0 0 277.5 349.6;" xml:space="preserve">
<style type="text/css">
	.st0{fill:#FFFFFF;}
</style>
<g>
	<path class="st0" d="M185.4,139.7c0,9.9-8.3,18.2-18.1,18c-9.8-0.2-17.7-8.2-17.6-18.1c0.1-9.9,8-17.8,17.9-17.8
		C177.4,121.9,185.4,129.9,185.4,139.7z"/>
	<path class="st0" d="M203,38.4c-1.7,0-3.5,0.1-5.2,0c-2.9-0.2-4.6-2-4.8-4.8c-0.2-2.8,1.4-4.9,4.3-5.1c3.8-0.3,7.7-0.3,11.6,0
		c2.9,0.2,4.5,2.2,4.4,5.1c-0.1,2.8-1.8,4.6-4.7,4.9C206.8,38.5,204.9,38.4,203,38.4z"/>
	<path class="st0" d="M233.8,38.4c-1.9,0-3.8,0.2-5.6,0c-2.9-0.3-4.5-2.2-4.5-5c0-2.6,1.5-4.7,4.2-4.9c4-0.2,8-0.3,11.9,0
		c2.7,0.2,4.2,2.2,4.1,4.9c0,2.9-1.7,4.7-4.6,5C237.6,38.5,235.7,38.4,233.8,38.4z"/>
	<path class="st0" d="M223.6,48.5c0,1.9,0.1,3.7,0,5.6c-0.2,2.9-1.9,4.6-4.8,4.7c-2.9,0.1-4.9-1.4-5.1-4.3c-0.2-3.8-0.2-7.7,0-11.6
		c0.2-2.9,2.3-4.5,5.1-4.4c2.8,0.1,4.6,1.8,4.8,4.7C223.7,45,223.6,46.8,223.6,48.5z"/>
	<path class="st0" d="M223.6,17.8c0,1.9,0.1,3.7,0,5.6c-0.2,2.9-1.9,4.6-4.8,4.7c-2.9,0.1-4.9-1.4-5.1-4.3c-0.2-3.8-0.2-7.7,0-11.6
		c0.2-2.9,2.3-4.5,5.1-4.4c2.8,0.1,4.6,1.8,4.8,4.8C223.7,14.3,223.6,16.1,223.6,17.8z"/>
	<path class="st0" d="M265.1,74.4c-1.1-0.1-2.3,0-3.4,0H152.6v-5.2c4.6,0,9.1,0,13.6,0c4.2,0,6.5-1.8,6.6-4.9
		c0.1-3.2-2.2-5.1-6.4-5.1c-21.4,0-42.7,0-64.1,0c-4,0-6.1,1.8-6.2,4.9c-0.1,3.3,2.1,5.1,6.3,5.2c4.6,0,9.2,0,13.9,0v5H75.7V48.8
		h4.7c1.6,0,3.3,0.1,4.9,0c3.4-0.2,5.8-2.4,5.6-5.3c-0.3-3.2-2.3-4.9-5.5-5c-2.5-0.1-5-0.1-7.5,0c-2.1,0.1-3-0.5-3.7-2.6
		C71,26.2,64.1,20.3,54.1,18.5c-3.3-0.6-6.7-0.4-10.1-0.3c-12.1,0.3-22.4,9.1-24.2,21.1C19,45,19.3,50.9,19.2,56.8
		c-0.1,6,1.7,11.6,5.3,16.5c1.7,2.4,0.1,8.7-2.6,10.2c-5.8,3.2-8.6,8.1-8.3,14.8c0.2,4,0.5,7.9,0.5,11.8c0,28,0.5,56-0.2,84
		c-1,36.6-3,73.2-4.6,109.7c-0.6,12.2,2.9,23.2,10,33c1.3,1.8,3.8,3.4,5.9,3.6c3,0.2,4-2.6,4.8-5.3c4.9-17.8,9.8-35.6,14.8-53.4
		c2.7-9.8,5.4-19.7,8.2-29.5h0.8c2.5,18.6,5.6,37.1,7.5,55.7c1.3,12.8,7.3,22.6,16.2,31.1c1.2,1.1,3.9,1.7,5.3,1.1
		c1.5-0.6,2.5-2.8,3.3-4.5c0.5-1,0.1-2.5,0.1-3.7c0-63.2,0-126.5-0.1-189.7c0-2.9,0.8-4.4,3.5-5.6c14.2-6.2,28.2-12.7,42.3-19
		c6.6-3,10.2-7.8,10.2-15.1c0-0.7,0.1-1.4,0.2-2.5h4.2c21.9,0,43.7,0.1,65.6-0.1c2.3,0,5-1.3,6.9-2.8c3.6-3,6.7-6.8,10.2-9.9
		c1.4-1.3,3.6-2.3,5.4-2.3c8.2-0.3,16.5-0.1,24.7-0.1c2.1,0,4.3,0.1,6.4-0.2c2.8-0.4,4.6-2.2,4.6-5C270,76.5,268.1,74.7,265.1,74.4z
		 M127,69.5h14.9v4.7H127V69.5z M45.9,28.3c10.2-0.2,15.9,2.9,18,10H31C32.5,32.1,38,28.5,45.9,28.3z M57.9,212.7
		c-5.8,6.4-8.9,13.8-11.1,22c-7.5,28.1-15.4,56-23.1,84c-0.2,0.8-0.5,1.6-0.8,2.5c-0.4,0-0.7,0.1-1.1,0.2c-0.9-4.8-2.6-9.7-2.4-14.5
		c1.3-35.6,3.1-71.1,4.7-106.7c0-0.8,0.2-1.7,0.3-2.7h45.5C65.7,202.8,62.1,208.1,57.9,212.7z M75.1,319.4c-0.2,0.1-0.5,0.2-0.7,0.2
		c-0.7-2.3-1.8-4.6-2.2-6.9c-3.5-25.1-6.5-50.2-10.7-75.2c-1.4-8.5,0.1-14.8,6.1-20.7c2.6-2.6,4.7-5.8,7.5-9.3V319.4z M129,107.2
		c-2.2,1.3-4.7,2.3-7.1,3.3c-13.8,6.3-27.7,12.6-41.6,18.8c-1.2,0.6-2.5,1-4.1,1.5c-1.3-0.6-2.7-1-4-1.8c-15-9-29.9-18-44.9-27.1
		c-3.6-2.2-4.6-4.9-2.9-7.7c1.6-2.7,4.7-3.1,8.2-1c13.1,7.8,26.1,15.6,39.1,23.7c3.5,2.2,6.4,2.3,10.1,0.5
		c13.2-6.2,26.5-12.1,39.8-18.2c1-0.5,2-0.9,3.1-1.3c2.8-0.9,5,0.1,6.2,2.6C132.3,103.5,131.4,105.8,129,107.2z M207.2,89.9
		c-20.1-0.2-40.2-0.1-60.3-0.1c-3,0-5.9,0.6-8.9,0.8c-1.1,0-2.5-0.2-3.5-0.7c-4.9-2.9-10.1-3.3-15-0.6c-11.8,6.5-24.6,9.4-38,9.9
		c-1.9,0.1-3.8,0.2-5.6,0.7c-7.9,2.2-14.5-0.2-20.9-4.8c-5-3.6-10.5-6.5-16.7-10.2H216C213.7,88.4,211.2,89.9,207.2,89.9z"/>
</g>
</svg>
