<?xml version="1.0" encoding="utf-8"?>
<!-- Generator: Adobe Illustrator 22.0.1, SVG Export Plug-In . SVG Version: 6.00 Build 0)  -->
<svg version="1.1" id="Layer_1" xmlns="http://www.w3.org/2000/svg" xmlns:xlink="http://www.w3.org/1999/xlink" x="0px" y="0px"
	 viewBox="0 0 368.6 393.8" style="enable-background:new 0 0 368.6 393.8;" xml:space="preserve">
<style type="text/css">
	.st0{fill:#FFFFFF;}
</style>
<g>
	<path class="st0" d="M318.5,94.4c-10,13-20.2,25.8-30.3,38.6c-2.2,2.9-4.4,5.8-6.8,8.5c-3.7,4.3-8.4,6.1-14,5.3
		c-17.3-2.3-34.7-4.6-52-6.9c-1.2-0.2-2.5-0.1-4.1-0.2v3.9c0,28-0.3,56,0.2,84c0.1,6.9,2.7,13.9,4.4,20.8
		c9.8,38,19.5,76.1,29.8,114.1c3.6,13.4-1.6,23-13.5,26.4h-6.8c-7.8-2.6-12.5-7.7-14.6-15.9c-8.7-34.6-17.8-69-26.8-103.6
		c-2.8-10.6-5.5-21.2-8.3-31.6c-7.9-0.8-7.9-0.8-10.5,6c-6.4,16.3-12.8,32.5-19.1,48.8c-0.7,1.7-1.3,3.5-1.6,5.4
		c-2.6,22.6-5.1,45.1-7.8,67.7c-0.5,4.3-1.1,8.7-2.5,12.8c-2,5.7-7.1,8.3-12.3,10.5h-7.5c-2.9-1.6-6.2-2.8-8.6-5
		c-5-4.2-6.3-10-5.6-16.3c1.6-13.8,3.2-27.5,4.8-41.3c1.4-11.8,2.7-23.6,4.2-35.3c0.3-2.7,1-5.4,2-7.9c6.4-16.7,13-33.2,19.4-49.9
		c0.7-1.7,1-3.6,1-5.4c0.1-32.5,0.1-65,0-97.5c0-1.5-1.1-3.5-2.3-4.4c-13.3-9.6-26.6-19-40-28.4c-4.1-2.9-6.7-6.5-8-11.3
		c-5.7-20.3-11.6-40.5-17.4-60.8C61.2,15.9,65.4,7.8,74,5.3C82.3,3,90.1,7.9,92.8,17c5.3,18.2,10.4,36.5,15.8,54.7
		c0.5,1.7,1.8,3.6,3.3,4.6c14.1,10.1,28.3,20.2,42.5,30.1c1.7,1.2,4.1,1.8,6.2,1.9c17.5,0.3,35-0.3,52.4,0.9
		c15.8,1.1,31.4,4.3,47.1,6.8c2.4,0.4,3.6-0.3,5-2c9.8-12.6,19.7-25.2,29.6-37.8c4.4-5.6,10.4-7.6,16.6-5.8
		C321.5,73.6,325.3,85.6,318.5,94.4z"/>
	<path class="st0" d="M202.4,68.1c-0.1,17.3-14.1,31.2-31.3,31c-17.1-0.1-31.2-14.4-31-31.5c0.2-17.2,14.2-30.9,31.6-30.8
		C188.9,37.1,202.5,50.9,202.4,68.1z"/>
	<path class="st0" d="M273.5,24c-7.7,2.7-15.1,5.2-22.5,8c-0.8,0.3-1.4,2.2-1.4,3.3c-0.1,9.4-0.2,18.7,0,28.1
		c0.1,3.6-1.4,5.6-4.6,6.7c-4.5,1.5-8.9,1.5-13-1c-3.6-2.3-3.5-5.9,0.1-8c1.3-0.7,2.7-1.2,4.2-1.5c1.3-0.3,2.7-0.4,4.3-0.6
		c0-9,0-17.7,0-26.5c0-5.9,0.7-6.8,6.1-8.7c9.2-3.2,18.4-6.4,27.6-9.6c5.6-1.9,8.3,0,8.4,5.9c0,11,0,22,0,33c0,5-1.5,6.8-6.5,8.1
		c-4.1,1-8,0.7-11.5-1.7c-3.4-2.3-3.4-5.8,0.2-7.8c2.5-1.3,5.3-1.8,8.5-2.8C273.5,41.2,273.5,32.8,273.5,24z"/>
	<path class="st0" d="M22.5,116.3c0-9.2,0.2-18.5-0.1-27.8C22.2,84.7,23.4,83,27,82c5.6-1.6,11-3.7,16.5-5.6
		c1.7,4.9,0.2,9.7-4.6,10.7c-7.5,1.6-8.1,6.1-7.7,12.4c0.5,7.3,0,14.7,0.2,22.1c0.1,3.1-1.3,5-3.9,6.1c-4.4,1.8-8.9,2-13-0.4
		c-1.5-0.9-3-3-3.1-4.5c-0.1-1.3,1.7-3.3,3.2-4C16.9,117.5,19.6,117.1,22.5,116.3z"/>
	<path class="st0" d="M317.2,172.4c0-9.7,0.1-19.5-0.1-29.2c0-2.5,0.7-3.7,3.2-4.5c6.1-1.9,12-4.1,18-6.3c1.7,4.9,0.2,9.7-4.7,10.9
		c-7,1.6-7.9,5.6-7.5,11.7c0.5,7.6,0.3,15.2,0,22.8c-0.1,1.8-1.3,4.3-2.7,5.1c-4.5,2.8-9.6,2.8-14.2,0.2c-1.4-0.8-2.9-2.8-2.9-4.3
		c0-1.4,1.7-3.4,3.1-4.1C311.5,173.6,314.2,173.3,317.2,172.4z"/>
	<path class="st0" d="M327.7,22.5c0.6,0.5,1.1,1,1.6,1.5c1.7,1.7,3.4,3.6,5.2,5.2c1.7,1.4,1.8,2.4,0.1,3.8c-1.9,1.6-3.6,3.3-5.2,5.2
		c-1.5,1.8-2.4,1.6-3.8-0.1c-1.6-1.9-3.6-3.4-5.1-5.3c-0.6-0.7-1-2.4-0.6-2.9c2-2.3,4.2-4.4,6.4-6.6C326.7,23,327.2,22.8,327.7,22.5
		z"/>
	<path class="st0" d="M12.1,58.2c0.6,0.5,1.1,1,1.6,1.5c1.7,1.7,3.4,3.6,5.2,5.2c1.7,1.4,1.8,2.3,0,3.8c-1.9,1.5-3.7,3.3-5.2,5.3
		c-1.5,1.8-2.4,1.6-3.7-0.1c-1.5-1.9-3.6-3.4-5.2-5.3c-0.6-0.7-1-2.4-0.6-2.9c2-2.3,4.3-4.5,6.5-6.6C11,58.7,11.5,58.5,12.1,58.2z"
		/>
	<path class="st0" d="M341,66.1c1.9-1.8,4.1-3.9,6.2-5.8c1.7,1.8,3.9,4,5.8,6.1c-1.8,1.7-4.1,3.8-6.2,5.7
		C345.1,70.4,342.9,68.2,341,66.1z"/>
	<path class="st0" d="M41.8,47.4c1.5-1.5,3.6-3.5,5.5-5.4c1.8,2,3.8,4.3,5.7,6.4c-1.6,1.4-3.9,3.4-6.1,5.4
		C45.5,52,43.6,49.6,41.8,47.4z"/>
	<path class="st0" d="M21,36.2c-1.1,1.2-2.6,2.7-4,4.1c-1.2-1.6-2.6-3.3-3.9-4.9c1-0.8,2.7-2.1,4.3-3.3C18.3,33,19.7,34.6,21,36.2z"
		/>
	<path class="st0" d="M358.4,40.7c-0.9-0.9-2.3-2.4-3.9-4c1.6-1,3.5-2.2,5.4-3.3c-0.3-0.4-0.7-0.8-1-1.2c1.5,1.6,3,3.2,4.4,4.7
		C361.7,38.1,360,39.4,358.4,40.7z"/>
</g>
</svg>
