<?xml version="1.0" encoding="utf-8"?>
<!-- Generator: Adobe Illustrator 22.0.1, SVG Export Plug-In . SVG Version: 6.00 Build 0)  -->
<svg version="1.1" id="Layer_1" xmlns="http://www.w3.org/2000/svg" xmlns:xlink="http://www.w3.org/1999/xlink" x="0px" y="0px"
	 viewBox="0 0 413.9 415.3" style="enable-background:new 0 0 413.9 415.3;" xml:space="preserve">
<style type="text/css">
	.st0{fill:#FFFFFF;}
</style>
<g>
	<path class="st0" d="M15.5,243.5c1.3-7.7,2.2-15.6,3.9-23.2c12.5-56.2,60.2-101.6,116.4-111.1c40.8-6.9,78.1,1.3,112,25.1
		c0.5,0.4,1,0.7,1.2,0.8c25.2-25.2,50.2-50.2,75.3-75.4c-33.4,0-67,0-100.9,0c0-14.6,0-28.8,0-43.2c58.6,0,117.1,0,175.8,0
		c0,58.6,0,117,0,175.8c-14.1,0-28.3,0-42.9,0c0-33.6,0-67.2,0-100.3c-24.9,24.9-49.9,50-75.3,75.3c1,1.5,2.7,4,4.4,6.6
		c55.3,84.9,8.4,200.4-90.4,222.6c-7.5,1.7-15.2,2.5-22.8,3.8c-6.8,0-13.5,0-20.3,0c-5-0.7-10.1-1.4-15.1-2.3
		c-57.6-9.7-105-54.7-117.6-111.8c-1.6-7.4-2.5-14.9-3.8-22.4C15.5,257,15.5,250.3,15.5,243.5z M63.8,253.3
		c-0.3,54.2,43.7,98.4,98.3,98.7c54,0.3,98.3-43.8,98.6-98c0.2-54.2-43.6-98.5-97.7-98.9C108.5,154.7,64.1,198.6,63.8,253.3z"/>
</g>
</svg>
