<?xml version="1.0" encoding="utf-8"?>
<!-- Generator: Adobe Illustrator 22.0.1, SVG Export Plug-In . SVG Version: 6.00 Build 0)  -->
<svg version="1.1" id="Layer_1" xmlns="http://www.w3.org/2000/svg" xmlns:xlink="http://www.w3.org/1999/xlink" x="0px" y="0px"
	 viewBox="0 0 452.8 427.3" style="enable-background:new 0 0 452.8 427.3;" xml:space="preserve">
<style type="text/css">
	.st0{fill:#A0B3D9;}
</style>
<g>
	<g>
		<path class="st0" d="M197.3,302.4c-2.1-2.1-3.7-4.8-5.3-6.9c-14.3,9-31.3,13.8-49.3,13.8c-53,0-96.4-43.4-96.4-96.4
			s42.9-96.4,96.4-96.4c18,0,35,5.3,49.8,13.8c2.6,1.6,4.8,3.2,7.4,4.8c2.6,1.6,4.8,3.7,6.9,5.8c5.8,4.8,10.6,10.1,14.3,15.9
			c2.1,2.6,3.7,5.3,5.3,8.5c2.1,3.2,3.2,6.4,4.8,9.5c5.3,11.7,7.9,24.9,7.9,38.1c0,13.8-3.2,27-7.9,38.7c1.6,3.2,3.2,6.4,5.3,9.5
			c4.2,6.4,9,12.2,14.3,17c2.1,2.1,4.2,4.2,6.9,5.8c12.7-20.7,20.1-44.5,20.1-70.5c0-25.4-7.4-49.8-19.6-69.9
			c-1.6-2.6-3.2-5.3-4.8-7.4c-1.6-2.1-3.2-4.8-5.3-6.9c-4.2-5.3-9-10.6-14.3-15.4c-2.1-2.1-4.8-4.2-6.9-5.8
			c-2.1-2.1-4.8-3.7-7.4-5.3c-21.7-14.8-47.7-23.8-76.3-23.8C69,78.8,8.1,139.2,8.1,213.9S68.5,349,143.2,349
			c28.1,0,54-8.5,75.8-23.3c-2.1-2.1-4.8-3.7-6.9-5.8C206.8,313.5,202,308.2,197.3,302.4z"/>
		<path class="st0" d="M310.1,78.3c-28.1,0-54,8.5-75.8,23.3c2.1,2.1,4.8,4.2,6.9,6.4c5.3,4.8,10.1,10.1,14.3,15.9
			c2.1,2.1,3.7,4.8,5.3,6.9c14.3-9,31.3-13.8,49.3-13.8c53,0,96.4,43.4,96.4,96.4s-42.9,96.4-96.4,96.4c-18,0-35.5-5.3-49.8-13.8
			c-2.6-1.6-4.8-3.2-7.4-4.8c-2.6-1.6-4.8-3.7-6.9-5.8c-5.8-4.8-10.6-10.1-14.3-15.9c-2.1-2.6-3.7-5.3-5.3-8.5
			c-2.1-3.2-3.7-6.4-4.8-9.5c-5.3-11.7-7.9-24.9-7.9-38.1c0-13.8,2.6-27,7.9-38.7c-1.6-3.2-3.2-6.4-5.3-9.5c-4.2-6.4-9-12.2-14.3-17
			c-2.1-2.1-4.8-4.2-6.9-5.8c-12.7,20.7-20.1,44.5-20.1,71c0,26,7.4,49.8,19.6,69.9c1.6,2.6,3.2,4.8,4.8,7.4
			c1.6,2.6,3.2,4.8,5.3,6.9c4.2,5.8,9.5,10.6,14.3,15.4c2.1,2.1,4.2,3.7,6.9,5.8s4.8,3.7,7.4,5.3c21.7,14.8,48.2,23.8,76.3,23.8
			c74.2,0,135.1-60.4,135.1-135.1C444.7,138.7,384.3,78.3,310.1,78.3z"/>
	</g>
</g>
</svg>
