<?xml version="1.0" encoding="utf-8"?>
<!-- Generator: Adobe Illustrator 22.0.1, SVG Export Plug-In . SVG Version: 6.00 Build 0)  -->
<svg version="1.1" id="Layer_1" xmlns="http://www.w3.org/2000/svg" xmlns:xlink="http://www.w3.org/1999/xlink" x="0px" y="0px"
	 viewBox="0 0 208.3 263.9" style="enable-background:new 0 0 208.3 263.9;" xml:space="preserve">
<style type="text/css">
	.st0{fill:#FFFFFF;}
</style>
<path class="st0" d="M104.1,21.1c-23.4,0-44.7,9.5-60,24.9c-15.3,15.4-24.8,36.6-24.8,60v124.4c0,3,3.2,5,5.9,3.7l15.9-7.7
	c2.5-1.2,5.5-0.9,7.7,0.9l22.3,18.3c2.7,2.3,6.7,2.2,9.4-0.2l18.8-16.7c2.8-2.5,7-2.4,9.7,0.1l17.3,16.3c2.6,2.5,6.7,2.6,9.5,0.3
	l22.3-18.3c2.1-1.8,5.1-2.1,7.6-1l17.6,8c2.7,1.3,5.8-0.7,5.8-3.7V105.9C189,59.1,151,21.1,104.1,21.1z M75.8,136.3
	c-9,0-16.2-7.3-16.2-16.2c0-9,7.3-16.2,16.2-16.2s16.2,7.3,16.2,16.2C92.1,129.1,84.8,136.3,75.8,136.3z M130.9,136.3
	c-9,0-16.2-7.3-16.2-16.2c0-9,7.3-16.2,16.2-16.2s16.2,7.3,16.2,16.2C147.1,129.1,139.8,136.3,130.9,136.3z"/>
</svg>
