<?xml version="1.0" encoding="utf-8"?>
<!-- Generator: Adobe Illustrator 22.0.1, SVG Export Plug-In . SVG Version: 6.00 Build 0)  -->
<svg version="1.1" id="Layer_1" xmlns="http://www.w3.org/2000/svg" xmlns:xlink="http://www.w3.org/1999/xlink" x="0px" y="0px"
	 viewBox="0 0 453.9 537.3" style="enable-background:new 0 0 453.9 537.3;" xml:space="preserve">
<style type="text/css">
	.st0{fill:#FFFFFF;}
</style>
<g>
	<path class="st0" d="M322,523.3c-57.3,0-114.7,0-172,0c-0.4-6.3-1-12.6-1.1-18.9c-0.2-24.8-9.9-45.1-28.1-61.8
		c-6.9-6.3-13.1-13.3-19.7-19.8c-11.6-11.5-18.9-25.3-22-41.2c-5.2-27.3-10-54.7-15.2-82c-2.5-13.2-4.3-26.8-8.8-39.4
		C42,223.5,27.5,187.4,13.8,150.9c-5.2-13.8,1.7-28.5,15.2-33.5c13.6-5,27.8,1.9,33,15.9c12.6,33.6,25.2,67.3,37.9,100.9
		c3,8,6.9,10.8,12.5,8.8c5.1-1.8,6.6-6.5,4.4-14.4c-13.2-47.4-26.4-94.9-39.5-142.4c-0.6-2.4-1.1-5-0.8-7.3
		c1.5-13.9,11-23.4,24.1-24.5c12.6-1.1,23.6,7.2,27.4,20.8c8.4,30.3,16.8,60.6,25.1,90.9c5.1,18.6,10.3,37.2,15.5,55.8
		c1.6,5.8,5.5,8.7,10.8,8.6c5.1-0.1,8.7-2.7,10.1-7.5c0.7-2.4,0.5-5.3,0.1-7.9c-1.1-8.4-2.4-16.8-3.6-25.2
		c-6.2-43.3-12.4-86.7-18.5-130c-0.8-5.4-1.7-10.9-2.3-16.3c-1.9-15.6,6-26.7,22.9-32.4c1.7,0,3.3,0,5,0c0.4,0.2,0.8,0.6,1.3,0.7
		c13.2,3.2,19.8,10.4,21.9,23.9c0.8,5.1,1.5,10.2,2.2,15.3c5.5,38.7,11,77.4,16.6,116.2c1.8,12.5,3.4,25.1,5.3,37.6
		c1.2,7.9,7.1,12.7,14,12c7.2-0.8,11.7-6.4,11.6-14.4c0-1.7-0.1-3.3-0.2-5c-2.4-49.4-4.7-98.8-7-148.3c-0.7-15.4,9.8-27.3,24.4-27.9
		c14.8-0.6,26.3,10,27,25.4c2.3,46.9,4.6,93.8,6.8,140.8c1,22.1,5.9,43.5,11,64.9c1.4,6,7.5,8.8,12.3,5.9c2.1-1.3,3.9-3.6,5-5.9
		c11.4-21.8,22.5-43.8,33.9-65.6c9.7-18.4,32.6-23.4,49.1-10.8c12.7,9.7,15.9,26.3,7.7,42.2c-20.9,40.7-42.2,81.2-62.6,122.1
		c-11.4,22.7-23.7,44.6-40.6,63.8c-2,2.2-3.7,4.7-5.4,7.2c-11.2,16.6-15.4,34.7-12.8,54.6C317.2,485,319.6,504.1,322,523.3z
		 M267.5,335.9c-0.2-3.8-0.2-6.5-0.5-9.1c-1.5-15.6-12.2-26.2-27-27c-14.2-0.8-25.9,8.6-28.5,23.9c-1.1,6.6-1.1,13.7-0.2,20.3
		c1.9,14,12.8,23.7,25.8,24.1c15.4,0.4,25.8-7.5,29.1-22.4C267,342.1,267.1,338.4,267.5,335.9z M150,320.9
		c0.7-7.4-2.4-12.5-7.8-16.3c-8.8-6.3-24.7-6-33.5,0.4c-9,6.6-10,19.1-1.5,26.4c3.6,3.1,8.2,5,12.5,7.1c3.9,1.9,8.1,3.1,12,4.8
		c3.3,1.4,5.4,4.3,4,7.6c-1,2.3-3.9,4.7-6.3,5.2c-9,2-13.6-1.4-15.8-10.4c-4.7,0-9.5,0-14.5,0c0.3,8.5,3.9,14.7,11.1,18.5
		c9.6,5,19.6,5.1,29.5,1.4c8.1-3,11.6-9.4,10.7-18.2c-1-10.5-8.9-14.5-17.3-18c-4.3-1.8-8.9-2.9-12.9-5.2c-1.9-1.1-4.1-4.4-3.7-6.1
		c0.5-2.2,3.2-4.7,5.5-5.5c7.2-2.4,11.7,0.4,14.7,8.3C141,320.9,145.3,320.9,150,320.9z M275.2,301.2c0,22.1,0,43.8,0,65.8
		c4.7,0,9.1,0,14.1,0c0-7.6,0-15.1,0-22.8c5.1,0,9.5,0.1,14,0c11-0.3,18.9-5.4,21.7-13.7c4.8-14.2-4.5-28.2-19.8-29.1
		C295.4,300.8,285.6,301.2,275.2,301.2z M207.7,312.8c0-4,0-7.6,0-11.4c-18.1,0-35.9,0-53.9,0c0,3.9,0,7.5,0,11.6
		c6.4,0,12.5,0,19.2,0c0,18.4,0,36.2,0,53.9c5.4,0,10.1,0,15.2,0c0-18.2,0-35.9,0-54.1C194.9,312.8,201.2,312.8,207.7,312.8z"/>
	<path class="st0" d="M252.8,334.7c-0.8,4.2-1.3,9.1-2.7,13.6c-1.6,5.1-5.6,7.8-11,7.8c-5.3,0.1-9.4-2.3-11.5-7.2
		c-3.9-9.5-3.9-19.2-0.4-28.7c2-5.4,6.7-8.1,12.1-7.9c5.3,0.2,9.7,3.3,11.3,9C251.8,325.4,252.1,329.8,252.8,334.7z"/>
	<path class="st0" d="M289.5,332.1c0-6.6,0-12.5,0-18.8c5,0,9.8-0.4,14.5,0.1c4.8,0.5,7.5,4.9,7.3,10.3c-0.2,4.8-2.5,7.8-7.6,8.3
		C299.1,332.4,294.5,332.1,289.5,332.1z"/>
</g>
</svg>
