<?xml version="1.0" encoding="utf-8"?>
<!-- Generator: Adobe Illustrator 22.0.1, SVG Export Plug-In . SVG Version: 6.00 Build 0)  -->
<svg version="1.1" id="Layer_1" xmlns="http://www.w3.org/2000/svg" xmlns:xlink="http://www.w3.org/1999/xlink" x="0px" y="0px"
	 viewBox="0 0 463.8 310.9" style="enable-background:new 0 0 463.8 310.9;" xml:space="preserve">
<style type="text/css">
	.st0{fill:#FFFFFF;}
</style>
<path class="st0" d="M442.8,221.8V37.4c0-12.9-10.5-23.4-23.4-23.4H40.2c-12.9,0-23.4,10.5-23.4,23.4v184.4
	c0,12.9,10.5,23.4,23.4,23.4h342.6l49.7,49.8c3.8,3.8,10.3,1.1,10.3-4.3v-65.5c0-0.4,0-0.6-0.1-1v-0.3
	C442.8,223.2,442.8,222.5,442.8,221.8z M142.9,77.8c5.3-5.4,13.9-5.4,19.1,0c5.3-5.4,13.9-5.4,19.1,0c5.3,5.3,5.3,13.8,0,19.1
	L162,116l-19.1-19C137.6,91.6,137.6,83.1,142.9,77.8z M142.9,150.1c5.3-5.3,13.9-5.3,19.1,0c5.3-5.3,13.9-5.3,19.1,0
	s5.3,13.9,0,19.1L162,188.3l-19.1-19.1C137.6,163.9,137.6,155.3,142.9,150.1z M75.1,77.8c5.3-5.4,13.8-5.4,19.1,0
	c5.3-5.4,13.8-5.4,19.1,0c5.3,5.3,5.3,13.8,0,19.1l-19.1,19l-19.1-19C69.8,91.6,69.8,83.1,75.1,77.8z M75.1,150.1
	c5.3-5.3,13.8-5.3,19.1,0c5.3-5.3,13.8-5.3,19.1,0c5.3,5.3,5.3,13.9,0,19.1l-19.1,19.1l-19.1-19.1C69.8,163.9,69.8,155.3,75.1,150.1
	z M203.3,236.8H57.2c-1.9,0-3.4-1.5-3.4-3.3c0-1.9,1.5-3.5,3.4-3.5h146.1c1.9,0,3.3,1.5,3.3,3.5
	C206.7,235.4,205.2,236.8,203.3,236.8z M239.1,236.8h-18.3c-1.9,0-3.5-1.5-3.5-3.3c0-1.9,1.5-3.5,3.5-3.5h18.3
	c1.9,0,3.4,1.5,3.4,3.5C242.6,235.4,241,236.8,239.1,236.8z M248.9,169.2l-19.1,19.1l-19.1-19.1c-5.3-5.3-5.3-13.9,0-19.1
	c5.3-5.3,13.9-5.3,19.1,0c5.3-5.3,13.9-5.3,19.1,0C254.2,155.3,254.2,163.9,248.9,169.2z M248.9,96.9l-19.1,19l-19.1-19
	c-5.3-5.3-5.3-13.9,0-19.1c5.3-5.4,13.9-5.4,19.1,0c5.3-5.4,13.9-5.4,19.1,0C254.2,83.1,254.2,91.6,248.9,96.9z M316.7,169.2
	l-19.1,19.1l-19.1-19.1c-5.3-5.3-5.3-13.9,0-19.1s13.8-5.3,19.1,0c5.3-5.3,13.8-5.3,19.1,0C322,155.3,322,163.9,316.7,169.2z
	 M316.7,96.9l-19.1,19l-19.1-19c-5.3-5.3-5.3-13.9,0-19.1c5.3-5.4,13.8-5.4,19.1,0c5.3-5.4,13.8-5.4,19.1,0
	C322,83.1,322,91.6,316.7,96.9z M384.4,169.2l-19.1,19.1l-19.1-19.1c-5.3-5.3-5.3-13.9,0-19.1c5.3-5.3,13.9-5.3,19.1,0
	c5.3-5.3,13.9-5.3,19.1,0C389.8,155.3,389.8,163.9,384.4,169.2z M384.4,96.9l-19.1,19l-19.1-19c-5.3-5.3-5.3-13.9,0-19.1
	c5.3-5.4,13.9-5.4,19.1,0c5.3-5.4,13.9-5.4,19.1,0C389.8,83.1,389.8,91.6,384.4,96.9z M393.7,40.1H247.6c-1.8,0-3.4-1.5-3.4-3.5
	c0-1.9,1.5-3.3,3.4-3.3h146.1c1.9,0,3.5,1.5,3.5,3.3C397.1,38.6,395.6,40.1,393.7,40.1z"/>
</svg>
