<?xml version="1.0" encoding="utf-8"?>
<!-- Generator: Adobe Illustrator 22.0.1, SVG Export Plug-In . SVG Version: 6.00 Build 0)  -->
<svg version="1.1" id="Layer_1" xmlns="http://www.w3.org/2000/svg" xmlns:xlink="http://www.w3.org/1999/xlink" x="0px" y="0px"
	 viewBox="0 0 841.9 595.3" style="enable-background:new 0 0 841.9 595.3;" xml:space="preserve">
<style type="text/css">
	.st0{fill:#FFFFFF;}
</style>
<g>
	<path class="st0" d="M518.4,322.6c0,53-42.9,95.9-95.9,95.9c-53,0-95.9-42.9-95.9-95.9s42.9-95.9,95.9-95.9
		C475.4,226.7,518.4,269.7,518.4,322.6z"/>
	<path class="st0" d="M622.4,135.7H545c-1.9-25.1-23.1-45.1-48.7-45.1H348.6c-13.4,0-25.6,5.5-34.5,14.4c-8,8-13.3,18.8-14.2,30.7
		h-77.4c-35.4,0-64.3,28.9-64.3,64.3v240.5c0,35.4,28.9,64.3,64.3,64.3h399.9c35.4,0,64.3-28.9,64.3-64.3V200
		C686.7,164.6,657.8,135.7,622.4,135.7z M422.4,445.3c-67.7,0-122.6-54.9-122.6-122.6S354.7,200,422.4,200s122.6,54.9,122.6,122.6
		S490.2,445.3,422.4,445.3z M601.2,247.2c-13.5,0-24.5-11-24.5-24.5c0-13.5,11-24.5,24.5-24.5c13.5,0,24.5,11,24.5,24.5
		C625.7,236.3,614.7,247.2,601.2,247.2z"/>
	<path class="st0" d="M518.4,322.6c0,53-42.9,95.9-95.9,95.9c-53,0-95.9-42.9-95.9-95.9s42.9-95.9,95.9-95.9
		C475.4,226.7,518.4,269.7,518.4,322.6z"/>
	<path class="st0" d="M518.4,322.6c0,53-42.9,95.9-95.9,95.9c-53,0-95.9-42.9-95.9-95.9s42.9-95.9,95.9-95.9
		C475.4,226.7,518.4,269.7,518.4,322.6z"/>
</g>
</svg>
