<?xml version="1.0" encoding="utf-8"?>
<!-- Generator: Adobe Illustrator 22.0.1, SVG Export Plug-In . SVG Version: 6.00 Build 0)  -->
<svg version="1.1" id="Layer_1" xmlns="http://www.w3.org/2000/svg" xmlns:xlink="http://www.w3.org/1999/xlink" x="0px" y="0px"
	 viewBox="0 0 354.7 354.7" style="enable-background:new 0 0 354.7 354.7;" xml:space="preserve">
<style type="text/css">
	.st0{fill:#FFFFFF;}
</style>
<g>
	<path class="st0" d="M169.9,169.9h16.6l49.1-49.1L219,104.1l-49.1,49.1V169.9z M246.7,98.6l-5.5-5.5c-3.2-3.2-7.9-3.2-11.1,0
		l-5.5,5.5l16.6,16.6l5.5-5.5C249.9,106.5,249.9,101.7,246.7,98.6z M224.5,154c0.8,3.2,0.8,5.5,0.8,8.7c0,13.5-8.7,36.4-47.5,72.1
		c-38.8-35.7-47.5-58.6-47.5-72.1c0-31.7,24.6-49.1,47.5-49.1c2.4,0,4.8,0,7.9,0.8l12.7-12.7c-6.3-2.4-13.5-3.2-20.6-3.2
		c-33.3,0-63.4,25.4-63.4,65c0,26.1,21.4,57.8,63.4,93.5c42-35.7,63.4-67.3,63.4-93.5c0-7.9-1.6-15.1-4-22.2L224.5,154z"/>
</g>
<g>
	<path class="st0" d="M177.8,345.8C85.1,345.8,9,270.5,9,177.8S85.1,9,177.8,9s168,76.1,168,168.8S270.5,345.8,177.8,345.8z
		 M177.8,23.3C93,23.3,24.1,92.2,24.1,177S93,330.7,177.8,330.7S331.5,261.8,331.5,177S262.6,23.3,177.8,23.3z"/>
</g>
</svg>
