<?xml version="1.0" encoding="utf-8"?>
<!-- Generator: Adobe Illustrator 22.0.1, SVG Export Plug-In . SVG Version: 6.00 Build 0)  -->
<svg version="1.1" id="Layer_1" xmlns="http://www.w3.org/2000/svg" xmlns:xlink="http://www.w3.org/1999/xlink" x="0px" y="0px"
	 viewBox="0 0 405.9 396.3" style="enable-background:new 0 0 405.9 396.3;" xml:space="preserve">
<style type="text/css">
	.st0{fill:#FFFFFF;}
</style>
<g>
	<path class="st0" d="M43.8,224.3c-2.8,0-5.6,0-8.3,0C38.3,224.4,41,224.3,43.8,224.3l4.5,0C46.8,224.3,45.3,224.3,43.8,224.3z"/>
	<path class="st0" d="M170.1,125.3c-0.1,83-0.1,166-0.1,249c0,0.6-0.1,1.2-0.2,2.5c-1.5-0.7-2.7-1.2-3.8-1.7
		c-40.2-20.1-80.4-40.2-120.6-60.2c-2.4-1.2-3.4-2.5-3.4-5.3c0.2-13.2,0.1-26.5,0.1-40.2c2.3,0,4.4-0.1,6.5,0
		c19.5,1.5,32.1-17.9,21.5-35.4c10-7.7,13-17.5,7.8-29.7c9.3-4,15.3-10.8,15.3-21.3c0-10.5-5.6-17.5-14.2-21.1
		c0.4-5.4,1.6-10.4,0.9-15.1c-1.5-10.7-10.5-18.1-21.4-18.4c-5.2-0.2-10.5,0-16,0V58.9c1.2,0.5,2.3,1,3.3,1.5
		c40.4,20.2,80.8,40.4,121.2,60.5C168.9,121.8,170.1,122.8,170.1,125.3z"/>
	<path class="st0" d="M362,309.9c0,2-0.3,3.4-2.4,4.4c-41,20.4-81.9,40.9-122.9,61.4c-0.6,0.3-1.3,0.5-2.5,1v-4.4
		c0-82,0-164-0.1-246c0-2.9,0.8-4.4,3.5-5.7c40.2-20,80.4-40.1,120.6-60.2c1.1-0.5,2.2-1,3.6-1.7v69.5c-4.3,0-8.4,0.3-12.5,0
		c-17.8-1.5-31.3,15.2-23.1,33.1c-9.4,4-15.2,10.8-15.3,21.3c0,10.5,5.8,17.4,15.2,21.5c-4.6,13.7-2.7,20.7,7.9,29.8
		c-5.4,9.3-5.7,18.4,1.2,27.1c6.8,8.6,16.6,8.6,26.5,8.1c0.1,1.3,0.2,2.3,0.2,3.2C362,284.9,362,297.4,362,309.9z"/>
	<rect x="183.1" y="122.2" class="st0" width="37.8" height="255.6"/>
	<path class="st0" d="M195.2,109.2c-3.2,0-6.3,0-9.4,0c-1.9,0-4.1-0.4-5.5,0.4c-4.1,2.3-7.1,0.1-10.4-1.6
		C137.1,91.7,104.3,75.2,71.4,59c-2.9-1.4-3.9-3-3.8-6.3c0.2-9.6,0.1-19.2,0.1-28.9v-4.3c6.7,2.9,12.9,5.5,19,8.2
		c28.8,13,57.3,26.6,83,45.3c7.4,5.4,14,12,20.7,18.3C195.5,96,196.6,102,195.2,109.2z"/>
	<path class="st0" d="M336.3,55.2c0,1.1-1.6,2.6-2.9,3.2C310.5,70,287.5,81.5,264.5,93c-11.3,5.6-22.5,11.3-33.8,16.8
		c-1.3,0.6-3.2,0.4-4.8,0.3c-2.2-0.2-4.4-0.8-6.6-0.9c-3.3-0.2-6.7,0-10.4,0c-0.6-5.3-1-10,2.3-14.4c7-9.4,15.9-16.6,25.3-23.2
		c23.3-16.4,48.6-29,74.4-40.8c8.3-3.8,16.6-7.3,25.5-11.3C336.4,32,336.5,43.6,336.3,55.2z"/>
	<path class="st0" d="M80.5,182.7c0.1,5.4-4.1,9.5-10.2,9.6c-13.3,0.1-26.7,0.1-40,0c-5,0-7.2-2.4-7.3-7.4c0-1.5,0-3,0-4.5
		c0.1-4.8,2.5-7.1,7.2-7.2c6.9-0.1,13.7,0,20.6,0c6.5,0,13,0,19.5,0C76.2,173.3,80.4,177.2,80.5,182.7z"/>
	<path class="st0" d="M381.3,185.2c-0.2,4.6-2.3,7.1-6.9,7.1c-13.7,0.1-27.5,0.1-41.2,0c-5.8-0.1-9.8-4.5-9.6-9.8
		c0.2-5.2,4.3-9.1,9.9-9.2c6.9-0.1,13.7,0,20.6,0c6.5,0,13,0,19.5,0c5.4,0,7.6,2.3,7.7,7.8C381.3,182.4,381.3,183.8,381.3,185.2z"/>
	<path class="st0" d="M381.3,152.2c0,5.9-2.3,8.2-8.1,8.3c-4.4,0-8.7,0-13.1,0c-4.2,0-8.5,0-12.7,0c-6.5-0.1-11-4.1-11-9.7
		c0.1-5.5,4.4-9.5,10.8-9.5c8.8-0.1,17.7-0.1,26.5,0c5.1,0,7.4,2.5,7.5,7.7C381.3,149.9,381.3,151,381.3,152.2z"/>
	<path class="st0" d="M67.7,150.9c-0.1,5.3-4.2,9.4-10,9.5c-9.2,0.1-18.5,0.1-27.7,0c-4.7,0-7-2.6-7.1-7.3c0-0.6,0-1.3,0-1.9
		c0-8.5,1.6-10.1,10-10.1H44c4.5,0,9-0.1,13.5,0C63.5,141.3,67.8,145.5,67.7,150.9z"/>
	<path class="st0" d="M67,218.2c-1.6,4-4.6,6.1-8.9,6.1c-3.2,0-6.5,0-9.7,0h-4.5c-2.8,0-5.6,0-8.3,0c-1.8,0-3.7,0-5.5,0
		c-4.7-0.1-7-2.5-7.1-7.2c0-1.1,0-2.2,0-3.4c0-6.5,2-8.5,8.5-8.5c8.8,0,17.7-0.2,26.5,0.1C65.1,205.5,69.5,211.8,67,218.2z"/>
	<path class="st0" d="M381.3,216.7c-0.1,5.2-2.3,7.5-7.5,7.6c-4.5,0.1-9,0-13.5,0c-4.6,0-9.2,0.1-13.8,0c-5.8-0.1-9.9-4.1-10-9.4
		c-0.1-5.3,4-9.5,9.8-9.6c9.3-0.2,18.7-0.1,28,0c4.6,0,6.8,2.4,7,7C381.3,213.7,381.3,215.2,381.3,216.7z"/>
	<path class="st0" d="M61.2,246.9c0,5.7-4.2,9.5-10.7,9.6c-0.6,0-1.2,0-1.9,0c-2.8,0-5.5,0-8.3,0c-1,0-2,0-3,0c-1.2,0-2.4,0-3.6,0
		c-1.3,0-2.6,0-3.9-0.1c-4.5-0.2-6.8-2.6-7-7.1c-0.4-10.6,1-12.2,11.7-12.2c5.4,0,10.8-0.1,16.1,0C57,237.2,61.2,241.1,61.2,246.9z"
		/>
	<path class="st0" d="M381.3,245.2v2.6c0,6.4-2.2,8.5-8.6,8.6c-6.4,0-12.8,0.1-19.1,0c-6.5-0.1-10.6-3.9-10.6-9.6
		c0-5.7,4.1-9.6,10.6-9.7c3.4-0.1,6.7,0,10.1,0c3.1,0,6.3,0,9.4,0C379,237.2,381.2,239.4,381.3,245.2z"/>
</g>
</svg>
