<?xml version="1.0" encoding="utf-8"?>
<!-- Generator: Adobe Illustrator 22.0.1, SVG Export Plug-In . SVG Version: 6.00 Build 0)  -->
<svg version="1.1" id="Layer_1" xmlns="http://www.w3.org/2000/svg" xmlns:xlink="http://www.w3.org/1999/xlink" x="0px" y="0px"
	 viewBox="0 0 403.9 500.8" style="enable-background:new 0 0 403.9 500.8;" xml:space="preserve">
<style type="text/css">
	.st0{fill:#FFFFFF;}
</style>
<g>
	<path class="st0" d="M183.1,282.6c0.1-13.7-5.2-24.1-15.6-32.8c-45.4-38.1-66.4-87-62.9-146.2c1-16.2,4.8-31.8,10.6-47
		c0.5-1.3,1.4-2.6,1.5-4c0.1-2.3,0.5-5.2-0.6-6.9c-1.8-2.7-4.6-1.1-6.7,0.5c-10.7,8.1-22.1,15.4-31.7,24.5
		c-34.9,33.1-53.5,74-57.2,121.8c0,0.1,0,0.2,0,0.4c0,0.1,0,0.2,0,0.3c0,0.1,0,0.2,0,0.4c-0.3,5.2-0.8,21.4,1.9,38.6
		c0.4,2.4,0.9,4.7,1.3,7.1c0,0,0,0,0,0.1c0.7,3.9,1.5,7.8,2.4,11.7c18,71.8,81.3,128.2,154.7,137.9c0.6,0.1,1.2,0,2.3,0v-4.8
		C183,350.3,182.8,316.5,183.1,282.6z M334,318.9c-0.2-29.8-19.1-55.3-47.5-62c-12.4-2.9-25.5-2.5-38.9-3.6c-0.1,3-0.3,4.7-0.3,6.4
		c0,15.6,0,31.3,0,46.9c0,1.4,0,2.9-0.1,4.3c-0.4,3.7-2.8,5.8-6.3,6.2c-3.5,0.4-6.3-1.3-7.3-4.8c-0.5-1.8-0.6-3.8-0.6-5.7
		c0-20,0-39.9,0-59.9c-0.1-19.8-15.6-30.5-34.2-23.6c-9.1,3.4-18.2,6.8-28.1,10.6c2,1.8,3.4,3.3,5.1,4.6
		c15,11.5,21.8,26.6,21.7,45.6c-0.3,63.9-0.1,127.7-0.1,191.6c0,9,1.6,10.6,10.6,10.6c9.7,0,19.5,0.1,29.2,0
		c24.9-0.2,43.2-18.4,43.3-43.3c0.2-25.2,0-50.5,0-75.7c0-1.4-0.1-2.9,0.1-4.3c0.4-3.9,2.7-6.2,6.5-6.5c3.8-0.3,6.4,1.7,7.5,5.4
		c0.4,1.5,0.4,3.2,0.4,4.7c0,17.2,0,34.5,0,51.7v5.3c14.3,1.3,26.2-1.4,34.4-13.7c0.1-0.2,0.2-0.3,0.3-0.5c0,0,0,0,0,0
		c4.2-6.9,4.4-14.1,4.4-14.1v-17.7C334.1,357.8,334.2,338.3,334,318.9z"/>
	<path class="st0" d="M22.3,232.3c0.4,2.4,0.8,4.7,1.3,7.1C23.1,237,22.7,234.6,22.3,232.3z"/>
	<path class="st0" d="M247.8,67.7c0,4.2-3.3,7.1-8.5,7.1c-8.3,0.1-16.6,0.1-24.9,0c-9.3-0.1-13.5-7.9-8.6-15.9
		c6.1-9.9,12.3-19.7,18.5-29.6c0.9-1.4,1.7-2.9,3-5.1c-6,0-11.4,0-16.7,0c-5.7,0-8.9-2.6-8.9-7c-0.1-4.5,3.1-7.3,8.7-7.3
		c8.1-0.1,16.3-0.1,24.4,0c9.4,0.1,13.7,7.8,8.8,15.8c-7,11.4-14.2,22.7-21.8,34.9c6.5,0,12.1-0.1,17.6,0
		C244.6,60.6,247.9,63.5,247.8,67.7z"/>
	<path class="st0" d="M288.5,177.2c0,4.6-3,7-8.9,7.1c-8,0.1-16-0.1-23.9,0.1c-4.4,0.1-7.9-1.2-10-5.2c-2.2-4-1-7.6,1.3-11.2
		c6.3-9.8,12.4-19.7,18.6-29.6c0.8-1.3,1.5-2.7,2.7-4.8c-6.7,0-12.2,0.1-17.8,0c-4.8-0.1-8-3-8-7.1c0-4.1,3.1-7.1,7.9-7.2
		c8.6-0.1,17.2-0.2,25.9,0c8.8,0.2,13,7.9,8.4,15.5c-6.2,10.2-12.7,20.3-19,30.4c-0.8,1.3-1.5,2.7-2.6,4.7c6.1,0,11.4,0,16.8,0
		C285.4,170,288.5,172.7,288.5,177.2z"/>
	<path class="st0" d="M373.5,116.4c-0.2,3.6-2.2,6.4-5.8,6.5c-10.2,0.3-20.4,0.6-30.6-0.1c-6.8-0.5-9.6-8.5-5.8-14.9
		c6.1-10.1,12.5-20,18.8-30c0.9-1.4,1.7-2.9,3.1-5.3c-5.1,0-9.4,0-13.6,0c-2.1,0-4.2,0-6.2-0.3c-3.8-0.7-5.9-3.2-5.8-7
		c0.1-3.8,2.2-6.6,6.1-6.7c9.9-0.3,19.8-0.5,29.6,0.1c7.2,0.4,10.5,8.2,6.6,14.8c-6.1,10.1-12.5,20-18.7,30c-0.9,1.5-1.7,3-3.2,5.5
		c5.2,0,9.5-0.1,13.8,0c2.2,0,4.5,0,6.6,0.5C371.9,110.2,373.7,112.8,373.5,116.4z"/>
	<path class="st0" d="M383.5,258.6c-7,23.6-18.4,44.9-34.2,64.2c-1.2-8.4-1.7-16.5-3.7-24.2c-2-7.6-5.5-14.8-8-21.3
		c12.8-7.7,26-15.7,39.3-23.4c1.3-0.8,3.9-0.6,5.2,0.2C383.1,254.9,383.9,257.3,383.5,258.6z"/>
</g>
</svg>
