<?xml version="1.0" encoding="utf-8"?>
<!-- Generator: Adobe Illustrator 22.0.1, SVG Export Plug-In . SVG Version: 6.00 Build 0)  -->
<svg version="1.1" id="Layer_1" xmlns="http://www.w3.org/2000/svg" xmlns:xlink="http://www.w3.org/1999/xlink" x="0px" y="0px"
	 viewBox="0 0 450.8 427.2" style="enable-background:new 0 0 450.8 427.2;" xml:space="preserve">
<style type="text/css">
	.st0{fill:#FFFFFF;}
</style>
<g>
	<path class="st0" d="M231.6,20.1c1.5,0.5,3.1,1,4.6,1.4c16.4,4.9,26.8,21.6,23.6,38.1c-3.3,17.2-19,29.4-35.6,27.7
		c-18.2-1.9-31.2-16-31.1-33.7c0.1-16,11-29.3,26.6-32.7c0.7-0.2,1.4-0.5,2.1-0.7C225.1,20.1,228.3,20.1,231.6,20.1z"/>
	<path class="st0" d="M257.1,176c-1.5,20.9-3,42.6-4.4,64.3c-0.1,1.4,0.4,2.9,0.8,4.3c4.2,12.5,8.1,25.2,12.7,37.6
		c2.9,7.8,3.5,15.8,4.2,23.9c2.2,25.4,4.4,50.8,6.7,76.2c1,10.8-4.6,19.1-14.5,21.3c-8.7,2-18.1-3.1-21-11.7c-1-3.1-1.3-6.6-1.6-9.9
		c-2.4-26.9-4.7-53.8-7-80.6c-0.2-1.8-0.6-3.7-1.2-5.5c-5.8-17.3-11.6-34.5-17.4-51.8c-2.3-6.7-2.3-6.7-9.7-6.3
		c0,4.1-0.2,8.2,0,12.2c0.8,17.1,1.9,34.2,2.5,51.3c0.1,3.7-0.5,7.9-2,11.2c-12.2,26.8-24.6,53.5-37.1,80.2
		c-3.8,8.1-11.7,12.4-19.7,11.1c-8.4-1.4-14.8-7.8-15.4-16.5c-0.2-3.6,0.7-7.5,2.2-10.8c11-24.3,22.4-48.5,33.5-72.8
		c0.9-1.9,1.4-4.3,1.3-6.4c-0.8-19.5-1.9-38.9-2.8-58.4c-0.1-2.2-0.1-4.5-0.2-6.7c-0.3-4.2,1.1-7,4.7-9.6c8-5.9,11.8-14.3,12.5-24.1
		c0.2-3.7,0.3-7.5,0.8-11.2c0.2-1.5,1-3,2-4.2c7.8-8.6,15.7-17.1,23.7-25.6c9.2-9.8,12.2-21.2,7.7-33.9c-4.5-12.5-14-19.4-27.1-21.1
		c-0.2,0-0.5-0.2-0.9-0.4c-0.2-1.4-0.4-3-0.6-5.1c7.3,0.4,14.2,0.8,21.2,1.3c9.1,0.6,18.2,1.4,27.3,1.9c13.9,0.9,23.2,11.5,22,25.4
		c-0.3,3.5,0.4,6.1,2.8,8.7c5.4,5.8,10.3,11.9,15.6,17.7c1.2,1.4,3.1,2.5,4.9,2.9c14,3.7,28.1,7.1,42.1,10.7
		c7.7,2,12.5,8.4,12.1,15.6c-0.4,7.7-5.8,13.7-13.6,14.6c-2.4,0.3-5-0.2-7.4-0.8c-15.6-3.8-31.3-7.5-46.8-11.9
		C265.4,181.9,261.4,178.5,257.1,176z"/>
	<path class="st0" d="M104.9,211.3c-7.4-1.7-13.1-6.3-15.7-14.1c-2.6-7.9-1.9-15.8,1.7-23.3c2.3-4.8,6.2-8.2,11.1-10.1
		c2.4-0.9,3.2-2.2,3.3-4.6c1-16.5,2.1-32.9,3.2-49.4c0.3-4.5,0.4-9,1.4-13.4c2.6-11.1,13.2-18.1,24.6-16.8c8.6,1,17.1,1.8,25.7,2.6
		c12.3,1.1,21.1,10.6,21.1,23c0,8.3,0,8.3-7.9,11c-10.3,3.5-20.5,7-30.9,10.4c-4.7,1.5-8,4.6-9.8,9.1c-8.5,20.2-17.1,40.4-25.2,60.8
		C105.7,201,105.8,206.1,104.9,211.3z"/>
	<path class="st0" d="M195,143.7c-9.4,5-18.9,10-28.2,15.2c-1,0.6-1.5,2.2-2,3.4c-6.9,16.3-13.6,32.7-20.5,49
		c-3.1,7.3-10.4,11.1-17.6,9.4c-7.3-1.7-12.4-8.2-12-15.6c0.1-2.2,0.8-4.4,1.6-6.5c7.6-18.3,15.3-36.6,22.9-54.9
		c1.9-4.5,4.8-7.7,9.1-10c11.1-5.8,22.1-11.6,33-17.7c7.3-4,14.6-5.2,21.4,0.1c7.3,5.7,10,13.7,8.2,22.7c-0.7,3.4-2.3,7-4.5,9.7
		c-6.1,7.3-12.7,14.1-19.7,21.7c0-3,0-5.3,0-7.5c0-0.2,0-0.5,0-0.7c-0.1-7.4,1-14.2,9.3-17.5C195.7,144.3,195.3,144,195,143.7z"/>
	<path class="st0" d="M150.1,220.7c7.9-18.9,15.8-37.8,23.8-56.7c0.6-1.5,1.9-2.7,2.8-4c0.3,0.1,0.7,0.2,1,0.4
		c-0.4,6.3-0.7,12.5-1.1,18.8c-0.4,6.5-0.9,12.9-1.4,19.4C174.3,211.9,162.2,222.5,150.1,220.7z"/>
</g>
<path class="st0" d="M167.7,79.5l-40.1-3.8c-7.8-0.7-13.7-7.8-12.9-15.6v0c0.7-7.8,7.8-13.7,15.6-12.9l40.1,3.8
	c7.8,0.7,13.7,7.8,12.9,15.6v0C182.5,74.4,175.5,80.2,167.7,79.5z"/>
<g>
	<path class="st0" d="M286.3,405.6c-0.1,0-0.1,0-0.2,0c-0.8-0.1-1.4-0.9-1.3-1.7l36-258.7c0.1-0.8,0.9-1.4,1.7-1.3
		c0.8,0.1,1.4,0.9,1.3,1.7l-36,258.7C287.7,405.1,287,405.6,286.3,405.6z"/>
</g>
<g>
	<path class="st0" d="M313.1,215.8c-0.2,0-0.4,0-0.6,0c-2.5-0.3-4.2-2.6-3.8-5.1l9.2-65.9c0.3-2.5,2.6-4.2,5.1-3.8
		c2.5,0.3,4.2,2.6,3.8,5.1l-9.2,65.9C317.3,214.2,315.3,215.8,313.1,215.8z"/>
</g>
<g>
	<path class="st0" d="M345.4,177.9c-0.2,0-0.4,0-0.6,0c-7-1-19.2-18.2-22.9-32.3l-0.3-1.1l0.9,0.7c1.3,0.9,30.9,22.7,26,30.9
		C347.8,177.2,346.8,177.9,345.4,177.9z M323,146.5c4,13.4,15.5,29.6,21.9,30.5c1.3,0.2,2.2-0.3,2.9-1.5
		C351.9,168.8,328.2,150.4,323,146.5z"/>
</g>
</svg>
