<?xml version="1.0" encoding="utf-8"?>
<!-- Generator: Adobe Illustrator 22.0.1, SVG Export Plug-In . SVG Version: 6.00 Build 0)  -->
<svg version="1.1" id="Layer_1" xmlns="http://www.w3.org/2000/svg" xmlns:xlink="http://www.w3.org/1999/xlink" x="0px" y="0px"
	 viewBox="0 0 276.1 298.5" style="enable-background:new 0 0 276.1 298.5;" xml:space="preserve">
<style type="text/css">
	.st0{fill:#FFFFFF;}
</style>
<g>
	<path class="st0" d="M176.8,155.8c-3.5,5.1-8,9.4-12.6,13.5c-5.8,5.1-11.7,10.1-17.5,15.2c-1.6,1.4-2.8,1.5-4.2,0.2
		c-7.5-6.4-15-12.7-22.3-19.3c-2.1-1.8-3.9-3.9-5.7-6c0,0,0,0,0,0c-0.6-0.6-12.6-12.2-6-27.2c0,0,0,0,0-0.1
		c2.5-6,6.9-10.2,13.7-11.8c8.5-2,15.9,1.3,21,9.1c0.3,0.4,0.5,0.8,0.9,1.4c0.3-0.5,0.6-0.8,0.8-1.2c3.4-5.1,7.7-8.7,14-9.6
		c9.3-1.3,18,4,21.2,13.1C183.1,141.3,181.7,148.8,176.8,155.8z"/>
	<path class="st0" d="M58.3,191.8c12.6,0,25-0.3,37.3,0.2c4,0.2,8.2,1.9,11.8,3.8c8.1,4.1,15.9,8.7,23.8,13.3
		c3.9,2.3,7.9,3.4,12.5,3.3c10.2-0.2,20.4-0.1,30.7,0c7.4,0.1,12.3,6.9,9.9,13.7c-1.5,4.2-5.3,6.9-10.1,6.9c-16.7,0-33.3,0-50,0
		c-0.9,0-1.9,0-2.8,0.1c-2.6,0.5-4.5,2.8-4.3,5.3c0.1,2.6,2.1,4.6,4.8,4.9c0.8,0.1,1.5,0,2.3,0c15.7,0,31.4-0.2,47.1,0.1
		c5.7,0.1,10.7-1.6,15.9-3.5c19.7-6.9,39.5-13.7,59.3-20.4c6.5-2.2,11.9,0.5,13.3,6.6c1.1,4.6-1.2,8.9-5.9,11
		c-12.7,5.6-25.4,11.2-38.1,16.8c-19.5,8.6-38.9,17.2-58.4,25.7c-18,7.8-35.4,6.4-52.2-3.5c-7.5-4.5-15.1-8.8-22.5-13.5
		c-7.5-4.8-15.6-7.3-24.5-8.5C58.3,233.3,58.3,212.7,58.3,191.8z"/>
	<path class="st0" d="M17,263.9c0-27.6,0-54.8,0-82.2c0.6-0.1,1.2-0.2,1.7-0.2c7.6,0,15.3,0,22.9,0c4.2,0,6.1,1.9,6.1,6.2
		c0,23.4,0,46.7,0,70.1c0,4.4-1.8,6.2-6.3,6.2C33.5,263.9,25.4,263.9,17,263.9z M32.3,202c2.9,0,5.2-2.3,5.2-5.2
		c0-2.7-2.3-5-5.1-5.1c-2.8,0-5.2,2.4-5.2,5.2C27.3,199.7,29.6,202,32.3,202z"/>
	<path class="st0" d="M218.9,106.7c-12.6,0-25,0.3-37.3-0.2c-4-0.2-8.2-1.9-11.8-3.8c-8.1-4.1-15.9-8.7-23.8-13.3
		c-3.9-2.3-7.9-3.4-12.5-3.3c-10.2,0.2-20.4,0.1-30.7,0c-7.4-0.1-12.3-6.9-9.9-13.7c1.5-4.2,5.3-6.9,10.1-6.9c16.7,0,33.3,0,50,0
		c0.9,0,1.9,0,2.8-0.1c2.6-0.5,4.5-2.8,4.3-5.3c-0.1-2.6-2.1-4.6-4.8-4.9c-0.8-0.1-1.5,0-2.3,0c-15.7,0-31.4,0.2-47.1-0.1
		c-5.7-0.1-10.7,1.6-15.9,3.5C70.2,65.5,50.4,72.2,30.6,79c-6.5,2.2-11.9-0.5-13.3-6.6c-1.1-4.6,1.2-8.9,5.9-11
		c12.7-5.6,25.4-11.2,38.1-16.8c19.5-8.6,38.9-17.2,58.4-25.7c18-7.8,35.4-6.4,52.2,3.5c7.5,4.5,15.1,8.8,22.5,13.5
		c7.5,4.8,15.6,7.3,24.5,8.5C218.9,65.2,218.9,85.8,218.9,106.7z"/>
	<path class="st0" d="M260.1,34.6c0,27.6,0,54.8,0,82.2c-0.6,0.1-1.2,0.2-1.7,0.2c-7.6,0-15.3,0-22.9,0c-4.2,0-6.1-1.9-6.1-6.2
		c0-23.4,0-46.7,0-70.1c0-4.4,1.8-6.2,6.3-6.2C243.7,34.6,251.8,34.6,260.1,34.6z M244.8,96.5c-2.9,0-5.2,2.3-5.2,5.2
		c0,2.7,2.3,5,5.1,5.1c2.8,0,5.2-2.4,5.2-5.2C249.9,98.7,247.6,96.5,244.8,96.5z"/>
</g>
</svg>
