<?xml version="1.0" encoding="utf-8"?>
<!-- Generator: Adobe Illustrator 22.0.1, SVG Export Plug-In . SVG Version: 6.00 Build 0)  -->
<svg version="1.1" id="Layer_1" xmlns="http://www.w3.org/2000/svg" xmlns:xlink="http://www.w3.org/1999/xlink" x="0px" y="0px"
	 viewBox="0 0 550.9 595.3" style="enable-background:new 0 0 550.9 595.3;" xml:space="preserve">
<style type="text/css">
	.st0{fill:#FFFFFF;}
</style>
<g>
	<path class="st0" d="M20.5,524.3c2.2-0.1,4.3-0.3,6.5-0.3c55.2,0,110.3,0,165.5,0c17.7,0,29-11.5,29.1-29.1c0-6.7,0-13.3,0-20
		c0-1.6,0-3.3,0-5.7c2.4,0,4.5,0,6.6,0c72.5,0,145,0,217.5,0c2.6,0,5.4-0.1,7.9-0.9c4.1-1.4,6.1-4.8,5.7-9c-0.3-4.2-2.7-7.2-7-8.1
		c-2.3-0.5-4.6-0.4-7-0.5c-44.8,0-89.7,0-134.5,0c-2.1,0-4.2,0-6.6,0c0-21.5,0-42.4,0-63.7c15.5,0,30.8,0,46.4,0
		c-2.7,13.9,0.3,26.1,10.5,35.9c7.3,7,16.3,10.5,26.3,10.1c23.2-0.9,36.6-18.8,34.6-46.3c3.2,0,6.3,0.1,9.4,0
		c16.4-0.4,27.8-11.9,28-28.3c0.1-5.5,0-11,0-16.8c6,0,11.7,0,17.8,0c0,69.7,0,139.4,0,209.4c-1.2,0.1-2.5,0.3-3.8,0.3
		c-151,0-302,0-453,0C20.5,542.3,20.5,533.3,20.5,524.3z"/>
	<path class="st0" d="M20.5,253.3c0.6-1.5,1.3-3,1.9-4.5c4.7-10.8,12.9-17.3,24.6-17.3c51.3-0.3,102.6-0.1,153.9-0.1
		c0.6,0,1.3,0.2,2.1,0.3c0,15.1,0,30,0,45.5c-2,0-3.7,0-5.5,0c-25.3,0-50.7-0.1-76,0c-16.1,0-27.9,11.6-28,27.6
		c-0.2,32.2-0.1,64.3,0,96.5c0,1.1,0.2,2.2,0.3,3.6c7.3,1.1,18.1-2.5,17.7,9.8c-0.4,11.3-10.5,7.9-17.9,9c0,5.5,0,11,0,16.4
		c-0.1,6.7-3.6,10.7-9.3,10.6c-5.5-0.1-8.9-3.9-8.9-10.4c0-21.8,0-43.7,0-65.5c0-1.8,0-3.6,0-6c-6,0-11.7,0-18.3,0
		c0-2.5,0-4.4,0-6.3c0-29.5,0-59,0-88.5c0-1.2,0-2.3,0-3.5c-0.1-7.5-3.5-11.7-9.4-11.5c-5.7,0.1-9,4.3-9,11.5c0,30.7,0,61.3,0,92
		c0,1.8,0,3.6,0,5.7c-7.2,0.7-14,1.8-18.2-5.7C20.5,325.9,20.5,289.6,20.5,253.3z"/>
	<path class="st0" d="M20.5,483.3c4-10.6,11.7-14.4,22.9-14.3c51.1,0.4,102.2,0.2,153.3,0.2c2,0,4,0,6.5,0c0,9.9,0.4,19.5-0.2,29
		c-0.2,4.3-3.6,7-8.2,7.3c-1,0.1-2,0.1-3,0.1c-55.9,0-111.9,0-167.8,0c-1.2,0-2.3-0.2-3.5-0.2C20.5,497.9,20.5,490.6,20.5,483.3z"/>
	<path class="st0" d="M532.5,391.3c-7,17.4-22.1,13.6-36.2,13.7c0-42.5,0-84.8,0-127.2c21.4-1.7,29.3-2.4,36.2,13.4
		C532.5,324.6,532.5,357.9,532.5,391.3z"/>
	<path class="st0" d="M250.4,45.5c12.6,41.4,50.9,57.9,81.1,57.8c29.1,0,67.9-15.5,80.8-57.9c9.1,5.4,18.1,10.8,27,16.3
		c0.9,0.6,1.5,2.1,1.8,3.2c0.3,1.1,0.1,2.3,0.1,3.5c0,95.5,0,191,0,286.5c0,2,0,4-0.4,6c-0.9,4.5-3.7,6.9-8.2,7.4
		c-1.5,0.1-3,0.1-4.5,0.1c-64.5,0-129,0-193.5,0c-10.3,0-13-2.7-13-13.1c0-95.7,0-191.3-0.1-287c0-4.3,1.3-6.5,5-8.5
		C234.5,55.4,242.2,50.5,250.4,45.5z"/>
	<path class="st0" d="M203.4,74.3c0,12.1,0,23,0,34c0,13.2-0.1,26.3,0.1,39.5c0.1,3.3-0.8,5.1-4,6.4c-9.2,3.8-18.3,8-27.4,11.9
		c-5.7,2.5-9.2,1.3-12.1-3.9c-6.4-11.8-12.8-23.7-19.1-35.6c-2.8-5.4-1.9-10.7,2.8-13.8C163.2,100,182.8,87.5,203.4,74.3z"/>
	<path class="st0" d="M460.1,75.1c1.2,0.7,2.5,1.3,3.7,2.1c17.7,11.3,35.3,22.6,52.9,33.9c7.2,4.6,8.4,9.2,4.4,16.8
		c-5.9,11.2-11.9,22.3-17.9,33.4c-3.4,6.3-6.6,7.4-13,4.5c-9.1-4-18.3-7.9-27.3-12.2c-1.5-0.7-3.3-2.6-3.3-4
		c-0.1-24.6,0-49.2,0-73.8C459.6,75.7,459.8,75.5,460.1,75.1z"/>
	<path class="st0" d="M203,322.7c-7.1,0-14,0-20.9,0c-7,0-14-0.2-21,0.3c-12.3,1-21.7,9.5-24.4,21.5c-1.1,5-2,10.1-3.1,15.1
		c-1.3,6.3-4.2,8.6-10.8,8.7c-3.5,0-6.9,0-10.6,0c-0.1-2-0.3-3.5-0.3-4.9c0-18.6,0-37.3,0-55.9c0-9.3,3-12.2,12.3-12.2
		c26.1,0,52.3,0,78.8,0C203,304.4,203,313.2,203,322.7z"/>
	<path class="st0" d="M271.8,50.6c40.2,9.4,79.1,9.3,119,0.1c-13.3,22.1-31.6,33.4-56.1,34.4C307.6,86.1,286.8,75.1,271.8,50.6z"/>
	<path class="st0" d="M476.9,322.4c-5.5,0-11.1,0-17.1,0c0-30.2,0-60.3,0-90.5c8.9-1.5,17.5,7.7,17.6,15.6c0.2,24.6,0.1,49.2,0,73.8
		C477.5,321.6,477.2,321.9,476.9,322.4z"/>
	<path class="st0" d="M386.2,386.7c4.2,0,8.4-0.3,12.5,0.1c1.7,0.2,4,1.6,4.7,3.1c3,7.1,0.3,15.7-6.1,20.5c-6.6,5-15.3,5-21.9,0.1
		c-6.4-4.8-9.2-13.4-6.3-20.5c0.6-1.5,2.9-3,4.6-3.2C377.8,386.4,382,386.7,386.2,386.7z"/>
</g>
</svg>
