<?xml version="1.0" encoding="utf-8"?>
<!-- Generator: Adobe Illustrator 22.0.1, SVG Export Plug-In . SVG Version: 6.00 Build 0)  -->
<svg version="1.1" id="Layer_1" xmlns="http://www.w3.org/2000/svg" xmlns:xlink="http://www.w3.org/1999/xlink" x="0px" y="0px"
	 viewBox="0 0 550.9 595.3" style="enable-background:new 0 0 550.9 595.3;" xml:space="preserve">
<style type="text/css">
	.st0{fill:#FFFFFF;}
</style>
<g>
	<path class="st0" d="M527.9,148.4c-20.4-71.1-99.7-105.6-165.8-72.5c-2.6,1.3-6.1,2.4-8.8,1.9c-24.8-4.9-45.7,15.7-41,40.5
		c0.4,2.4,0.1,5.3-1,7.4c-11.7,23.1-16.1,47.4-11.9,73.1c0.5,3.3-0.4,5.5-2.7,7.9c-52.5,55.1-104.9,110.3-157.4,165.5
		C119,393.7,98.6,415,78.5,436.5c-16.6,17.7-16,40.4,1,57.5c1.5,1.5,3,3.2,4.6,4.6c2.1,1.7,2.5,3.4,1.6,6.1
		c-3.1,9.4-7.9,17.6-15.3,24.2c-10.8,9.7-23.8,14.6-38,16.1c-5.6,0.5-9.4,2.6-12,7.4v6c2.9,2.3,5.4,5.5,8.7,6.6c3,1,6.9,0,10.3-0.6
		c27.8-5,49.8-18.2,62.1-44.8c0.3-0.7,0.8-1.2,1.3-1.8c19.6,16.1,39.8,15.2,57.9-2.1c19.7-18.8,39.5-37.6,59.2-56.3l0,0l89.9-84.9
		c0.6-0.4,1.1-0.9,1.7-1.4c25.7-24.5,51.4-49,76.9-73.6c2.9-2.8,5.5-3.4,9.3-2.8c24.8,3.7,48.4-0.2,70.8-11.6
		c3.3-1.7,6.1-2.2,9.8-1.5c24,4.5,44.5-16.7,39.6-40.5c-0.5-2.3,0.1-5.2,0.9-7.5c3.5-10,7.4-19.9,10.7-30c1.5-4.5,1.9-9.4,2.8-14.1
		v-21C531,163,530,155.5,527.9,148.4z M467,89.3c2.1,0,3.8,1.7,3.8,3.8s-1.7,3.8-3.8,3.8s-3.8-1.7-3.8-3.8S464.9,89.3,467,89.3z
		 M467,107.1c2.1,0,3.8,1.7,3.8,3.8c0,2.1-1.7,3.8-3.8,3.8s-3.8-1.7-3.8-3.8C463.2,108.8,464.9,107.1,467,107.1z M467,124.7
		c2.1,0,3.8,1.7,3.8,3.8s-1.7,3.8-3.8,3.8s-3.8-1.7-3.8-3.8S464.9,124.7,467,124.7z M467,143.7c2.1,0,3.8,1.7,3.8,3.8
		s-1.7,3.8-3.8,3.8s-3.8-1.7-3.8-3.8S464.9,143.7,467,143.7z M467,163.6c2.1,0,3.8,1.7,3.8,3.8c0,2.1-1.7,3.8-3.8,3.8
		s-3.8-1.7-3.8-3.8C463.2,165.3,464.9,163.6,467,163.6z M448,81.1c2.1,0,3.8,1.7,3.8,3.8s-1.7,3.8-3.8,3.8s-3.8-1.7-3.8-3.8
		S445.9,81.1,448,81.1z M448,98.9c2.1,0,3.8,1.7,3.8,3.8c0,2.1-1.7,3.8-3.8,3.8s-3.8-1.7-3.8-3.8C444.2,100.5,445.9,98.9,448,98.9z
		 M448,116.4c2.1,0,3.8,1.7,3.8,3.8s-1.7,3.8-3.8,3.8s-3.8-1.7-3.8-3.8S445.9,116.4,448,116.4z M448,135.4c2.1,0,3.8,1.7,3.8,3.8
		s-1.7,3.8-3.8,3.8s-3.8-1.7-3.8-3.8S445.9,135.4,448,135.4z M448,155.4c2.1,0,3.8,1.7,3.8,3.8c0,2.1-1.7,3.8-3.8,3.8
		s-3.8-1.7-3.8-3.8C444.2,157,445.9,155.4,448,155.4z M428.6,79.2c2.1,0,3.8,1.7,3.8,3.8s-1.7,3.8-3.8,3.8c-2.1,0-3.8-1.7-3.8-3.8
		S426.6,79.2,428.6,79.2z M428.6,98.9c2.1,0,3.8,1.7,3.8,3.8c0,2.1-1.7,3.8-3.8,3.8c-2.1,0-3.8-1.7-3.8-3.8
		C424.9,100.5,426.6,98.9,428.6,98.9z M428.6,116.4c2.1,0,3.8,1.7,3.8,3.8s-1.7,3.8-3.8,3.8c-2.1,0-3.8-1.7-3.8-3.8
		S426.6,116.4,428.6,116.4z M428.6,135.4c2.1,0,3.8,1.7,3.8,3.8s-1.7,3.8-3.8,3.8c-2.1,0-3.8-1.7-3.8-3.8S426.6,135.4,428.6,135.4z
		 M408.6,80.1c2.1,0,3.8,1.7,3.8,3.8s-1.7,3.8-3.8,3.8c-2.1,0-3.8-1.7-3.8-3.8S406.6,80.1,408.6,80.1z M408.6,98.9
		c2.1,0,3.8,1.7,3.8,3.8c0,2.1-1.7,3.8-3.8,3.8c-2.1,0-3.8-1.7-3.8-3.8C404.9,100.5,406.6,98.9,408.6,98.9z M408.6,117.3
		c2.1,0,3.8,1.7,3.8,3.8s-1.7,3.8-3.8,3.8c-2.1,0-3.8-1.7-3.8-3.8S406.6,117.3,408.6,117.3z M392.9,81.8c2.1,0,3.8,1.7,3.8,3.8
		s-1.7,3.8-3.8,3.8c-2.1,0-3.8-1.7-3.8-3.8S390.8,81.8,392.9,81.8z M392.9,100.8c2.1,0,3.8,1.7,3.8,3.8s-1.7,3.8-3.8,3.8
		c-2.1,0-3.8-1.7-3.8-3.8S390.8,100.8,392.9,100.8z M379,87.6c2.1,0,3.8,1.7,3.8,3.8s-1.7,3.8-3.8,3.8s-3.8-1.7-3.8-3.8
		S376.9,87.6,379,87.6z M494.3,259.9c-5.8,5.6-14.2,5.3-20.5-1c-45.7-45.7-91.4-91.4-137.1-137.1c-5-5-6.2-10.8-3.5-16.4
		c2.5-5.3,6.9-7.9,10.7-8.1c7.3-0.2,10.9,3,14.4,6.4c40.2,40.2,80.3,80.3,120.5,120.5c5,5,10,9.8,14.8,14.9
		C499.9,245.6,500.2,254.2,494.3,259.9z"/>
	<path class="st0" d="M522.8,410.2c0.2-11.5-3.3-21.8-10.4-30.6c-17.3-21.6-40.2-32.9-67.5-35.3c-10.8-0.9-14.2,2.8-14.2,13.5
		c0,25,0,50,0,75v28.9c-2.3-1.3-3.6-2.1-5-2.9c-20.7-11.4-41.8-11.8-62.4-0.4c-32.2,17.7-35.2,58-6.1,79.9
		c12,9.1,25.9,12.7,40.8,11.9c27.5-1.6,54.1-21.8,53.2-55.2c-1-41.1-0.3-82.3-0.3-123.4v-6.4c19.2,4.6,35.6,12.5,46.4,28.8
		c3.1,4.7,4.6,11.1,5,16.8c0.8,11.6,0.2,23.3,0.2,35c0,7.3,3.9,11.7,10.1,11.7c6.2,0,10-4.2,10-11.7
		C522.8,433.9,522.7,422,522.8,410.2z M424.3,517.2c-8,9.2-18.5,12.6-30.3,13.1c-11.6-0.5-21.9-3.8-29.9-12.7
		c-9-10-9.1-23.9-0.4-34.1c14.7-17.2,45.7-17.2,60.5,0C432.9,493.4,433,507.2,424.3,517.2z"/>
	<path class="st0" d="M241.5,84.5c0-16.4-10.1-24.1-25.9-19.9c-35,9.3-70.1,18.7-105.1,28C95.3,96.7,89,105,89,120.7
		c0,30.2,0,60.3,0,90.5v6.2c-2.6-1.1-4.3-1.8-6-2.4c-18.3-6.4-35.3-4-49.7,9.3c-14,12.9-15.4,33-3.9,47.9
		c11.3,14.7,32.8,20.7,51.5,14.3c18.5-6.3,28.3-20.3,28.3-40.6c0.1-25.8,0-51.7,0-77.5v-5.5c37.8-10,74.7-19.8,111.9-29.7v34.2
		c-2-0.8-3.3-1.4-4.6-2c-11.4-4.6-23-5.1-34.7-1.1c-16.5,5.6-27.4,19.5-27.8,35.4c-0.4,15.7,10.2,30.3,26.6,36.2
		c4.2,1.5,8.7,2.5,13.1,2.9c24.5,2.2,48.5-15,47.9-42.2C240.9,159.2,241.5,121.9,241.5,84.5z M84.5,261c-5,5.5-11.6,7.5-18.9,8
		c-7.5-0.3-14.3-2.4-19.5-8.3c-5.6-6.3-5.5-14.5,0.1-20.8c9.5-10.6,28.9-10.6,38.4,0C90.4,246.2,90.3,254.7,84.5,261z M214.9,213
		c-9.1,7.6-24.6,7.8-33.8,0.3c-9.1-7.3-9.4-19.1,0.1-25.8c4.7-3.3,10.6-4.7,16.6-7.2c6,2.6,12.2,4.1,16.9,7.5
		C223.7,194.1,223.3,205.9,214.9,213z"/>
</g>
</svg>
