<?xml version="1.0" encoding="utf-8"?>
<!-- Generator: Adobe Illustrator 22.0.1, SVG Export Plug-In . SVG Version: 6.00 Build 0)  -->
<svg version="1.1" id="Layer_1" xmlns="http://www.w3.org/2000/svg" xmlns:xlink="http://www.w3.org/1999/xlink" x="0px" y="0px"
	 viewBox="0 0 547.9 463.3" style="enable-background:new 0 0 547.9 463.3;" xml:space="preserve">
<style type="text/css">
	.st0{fill:#FFFFFF;}
</style>
<g>
	<path class="st0" d="M387.1,158.1c-2.2-0.9-4.3-1.2-5.8-2.3c-4.2-3-3.7-9.6,0.8-12.2c8.4-5,20,1.1,20.2,10.8
		c0.3,9.5,0.1,18.9,0.1,28.4c1.6,0.5,3.3,0.6,3.9,1.5c1.7,2.3,4.1,5,4.2,7.6c0.2,3.5-2.6,6.2-6.4,6.4c-6.1,0.3-12.3,0.3-18.5,0
		c-3.8-0.2-6.6-2.8-6.3-6.4c0.2-2.6,2.6-5.2,4.3-7.6c0.6-0.8,2.1-0.8,3.5-1.3C387.1,174.7,387.1,166.5,387.1,158.1z"/>
	<path class="st0" d="M510.8,115.2c-8.5-0.4-14.8-5.3-18-13.1c-1.5-3.7-2.1-8.1-2.2-12.1c-0.2-19.5,0-39-0.1-58.5
		c-0.1-12.2-7.2-19.2-19.3-19.2c-6,0-12,0-18,0c-12.1,0.1-19.2,7.1-19.3,19.3c-0.1,11.8,0.2,23.7-0.1,35.5
		c-0.7,28.9-28,48.4-54.6,39.2c-16.7-5.7-27.3-20.7-27.6-39.4c-0.2-11.8,0.1-23.7-0.1-35.5c-0.2-11.9-7.3-19-19.1-19
		c-6.5,0-13-0.1-19.5,0c-10.5,0.2-17.9,7.5-18.1,17.9c-0.1,6.8,0,13.7,0,20.5c0,5.8,2.8,9.3,7.4,9.3c4.6,0,7.5-3.5,7.6-9.3
		c0.1-5.8,0.3-11.7-0.1-17.5c-0.2-4.5,1.1-6.4,5.9-6.1c5,0.4,10,0.4,15,0c4.8-0.3,6,1.7,6,6.1c-0.1,13-0.4,26,0.3,39
		c1.6,31.6,33.3,56.2,64.4,50.5c27.8-5.2,46.9-27.6,47.5-56.1c0.2-11.5,0.1-23,0-34.5c-0.1-3.7,1.3-5.1,5-4.9c5,0.2,10,0,15,0
		c6.6,0,6.7,0.1,6.7,6.7c0,19.2-0.1,38.3,0.1,57.5c0.2,21.8,14.3,37.1,35.6,38.9c3.5,0.3,5,1.5,4.9,5.2c-0.2,7.8-0.3,15.7,0,23.5
		c0.1,3.7-0.9,5.5-4.4,7.2c-36.8,17.5-73.6,35.1-110.2,53c-6.2,3-11.1,3.2-17.4,0.1c-36.7-18-73.7-35.6-110.6-53.3
		c-2.3-1.1-4.3-1.9-4.2-5.2c0.3-8.5,0.2-17,0-25.5c0-3.4,1.4-4.6,4.7-4.9c24.7-2.4,40.5-23.9,35.8-48.7c-0.8-4.1-3.3-6.5-7.6-6.5
		c-4.1,0-6.9,3-7.2,7.4c-0.1,2.3,0,4.7,0,7c0,15.9-7.7,24.4-23.4,26c-10.6,1.1-16.8,7.7-17.1,18.5c-0.1,4,0,8,0,12
		c0,47.7,0,95.3,0.1,143c0,3.4-1,5.4-4,7.1c-10.5,6.1-20.8,12.5-31.4,18.5c-1.7,1-4.2,0.8-6.3,0.5c-5.5-0.8-11-2.8-16.5-3
		c-12.5-0.5-25-0.2-37.5-0.2h-5.3V182.7c0.7-0.2,1-0.3,1.3-0.3c14.5,0,29,0.1,43.5-0.1c18.8-0.3,34-14.6,35.5-33.3
		c1.5-18-11.2-34.5-29.3-37.9c-4.7-0.9-9.5-0.8-14.7-1.3c1-10.6-0.6-20.4-8.3-28.3c-7.7-7.9-17.6-9.3-28.5-8.9c0-5,0-9.4,0-13.9
		c-0.1-9.5-6.4-16-15.9-16.3c-7-0.2-14-0.1-21,0c-9.8,0.2-16.1,6.6-16.2,16.4c-0.1,4.4,0,8.9,0,13.7c-11.1-0.4-20.9,1.1-28.7,9.1
		c-7.7,8-8.9,17.8-8.2,28c-6.1,0.7-11.8,0.9-17.3,2c-4.3,0.8-6.4,4.7-5.7,8.7c0.8,3.9,4.3,6.3,8.6,5.9c2.1-0.2,4.3-0.9,6.4-0.9
		c47.7,0,95.3-0.1,143,0c6.5,0,12,2.7,16.1,7.8c5.3,6.7,6.4,14.3,2.8,22c-3.9,8.1-10.6,12.2-19.6,12.2c-47.2,0-94.3,0-141.5,0
		c-2,0-4-0.2-5.9-0.7c-10.4-2.7-16.2-11.2-15.7-23c0.3-6.5-3.3-10.7-8.4-9.2c-2.6,0.8-4.5,3.8-6.7,5.8v12c0.7,1.8,1.3,3.7,1.9,5.6
		c4.8,14.3,18,24.2,33.2,24.4c15,0.2,30,0,45.4,0v129.5c-1.6,0.1-3.3,0.2-5.1,0.2c-12,0-24,0-36,0c-21,0-33,9.1-38.8,29.5
		c-0.1,0.3-0.4,0.5-0.6,0.8v12c0.3,0.7,0.8,1.4,1,2.2c4.7,16.8,18,27.3,35.4,27.7c2.3,0,4.6,0,7.5,0c-0.4,10.6,0.5,20.6,8.3,28.5
		c7.8,7.9,17.5,9.7,28.7,8.8c0,5,0,9.4,0,13.8c0.1,10.2,6.3,16.5,16.5,16.7c6.8,0.1,13.7,0.2,20.5,0c9.9-0.3,16.1-6.6,16.2-16.5
		c0-4.1,0-8.3,0-13.3c1.5,1.4,2.5,2.2,3.3,3.1c10.6,11.3,23.6,17.1,39.1,17.1c89.8,0,179.6,0,269.3,0c17,0,29.1-12.4,29.2-29.5
		c0.1-14,0-28,0.1-42c0-0.3,0.2-0.6,0.4-1.3c2.5-0.1,5.1-0.1,7.7-0.5c13.7-2.3,22.9-10,27.5-23.1c0.4-1.2,1-2.4,1.4-3.6v-213
		C527.6,119.9,520.8,115.7,510.8,115.2z M115.2,57.7h22.6v14.7h-22.6V57.7z M174.7,110.1H78.6c-3.1-14.5,3.2-22.5,17.5-22.5
		c19.5,0,39,0,58.5,0C171.2,87.6,176,92.8,174.7,110.1z M308.2,278.9c1.8,7.1,0.5,11.3-5.2,14.7c-26.1,15.7-52.2,31.4-78.3,46.9
		c-5.4,3.2-9.3,2.3-14.3-3C243.2,317.9,275.7,298.4,308.2,278.9z M267.4,332.6c4.3-2.6,8.1-4.9,12.3-7.4
		c13.5,19.3,26.9,38.5,40.9,58.7c-6,0-11.1,0.1-16.2-0.1c-0.9,0-2-1.1-2.6-1.9C290.4,365.6,279.1,349.4,267.4,332.6z M284.8,383.8
		c-6.3,0-11.2,0.1-16.1-0.1c-1.1,0-2.5-1-3.2-1.9c-7.9-11.1-15.6-22.3-23.7-33.9c4.2-2.6,8.2-5,12.6-7.7
		C264.4,354.6,274.3,368.7,284.8,383.8z M137.7,436.6h-22.6V422h22.6V436.6z M144.8,404.6c0.1,0.5,0,1,0,2h-11.5
		c-12.3,0-24.7,0-37,0c-13.7,0-18.6-5-18.4-18.8c0-1,0.1-2,0.2-3.7h5.3c11.7,0,23.3,0,35,0c5.8,0,9.3-3,9.3-7.5
		c0-4.6-3.4-7.4-9.3-7.4c-20.8,0-41.7,0.1-62.5-0.1c-15.3-0.1-25.4-13.5-21-27.4c2.6-8.2,9.9-14,18.5-14.5c3-0.2,6-0.1,9-0.1h133.9
		c0.1,0.4,0.2,0.8,0.4,1.2c-8.4,5-16.6,10.4-25.1,15C149.1,355.3,137.9,380.3,144.8,404.6z M197.1,345.4
		c8.3,10.8,18.8,14.3,31.7,10.1c6.4,9.2,12.7,18.3,19.5,28h-89.6C162.3,361.2,181.9,355.7,197.1,345.4z M478.8,414.9
		c-0.4,6.6-5.7,11.7-12.3,12.3c-1,0.1-2,0.1-3,0.1c-89.4,0-178.9,0-268.3,0c-16.8,0-30.9-10.5-35.7-26.1c-0.1-0.5-0.1-1-0.3-1.9
		h319.7C478.9,404.6,479.2,409.8,478.8,414.9z M479,316.3c0,21.5,0,43,0,64.5c0,0.8-0.1,1.6-0.3,3.1h-4.9c-31.3,0-62.6,0-94,0.1
		c-3.4,0-5.4-1-7.3-3.9c-6.7-9.9-13.6-19.7-20.5-29.5c-3.7-5.3-7.7-6.6-11.7-3.9c-4.1,2.8-4.3,7.1-0.5,12.6
		c4.6,6.6,9.2,13.1,13.7,19.7c0.9,1.3,1.7,2.7,3.1,4.9c-6,0-11.1,0.1-16.2-0.1c-1.1,0-2.3-1.2-3-2.2c-14.8-21.1-29.6-42.3-44.8-64.1
		c4.2-2.5,8.2-4.9,12.6-7.6c5.2,7.4,10.3,14.6,15.3,21.8c2.5,3.6,5.9,4.9,10,3.3c4.3-1.7,5.5-7,2.6-11.4
		c-4.3-6.5-8.8-12.9-13.4-19.3c-1.6-2.2-1.1-3.6-0.2-6.1c2.6-6.6,4.3-13.6,6.5-21.1c9.2-2,12.4-0.3,16.8,8.8
		c11.3,23.6,30.3,36.4,56.3,36.1c26-0.3,44.7-13.5,55.5-37.3c3.5-7.8,5.8-9.3,14.1-7.6c6.3,1.2,10.3,5.9,10.4,12.8
		C479.1,298.6,479,307.5,479,316.3z"/>
	<path class="st0" d="M196.7,328.2c-8.4,5-16.6,10.4-25.1,15c-22.4,12.1-33.6,37-26.7,61.4c0.1,0.5,0,1,0,2h-11.5
		c-12.3,0-24.7,0-37,0c-13.7,0-18.6-5-18.4-18.8c0-1,0.1-2,0.2-3.7h5.3c11.7,0,23.3,0,35,0c5.8,0,9.3-3,9.3-7.5
		c0-4.6-3.4-7.4-9.3-7.4c-20.8,0-41.7,0.1-62.5-0.1c-15.3-0.1-25.4-13.5-21-27.4c2.6-8.2,9.9-14,18.5-14.5c3-0.2,6-0.1,9-0.1h133.9
		C196.5,327.4,196.6,327.8,196.7,328.2z"/>
	<path class="st0" d="M174.7,110.1H78.6c-3.1-14.5,3.2-22.5,17.5-22.5c19.5,0,39,0,58.5,0C171.2,87.6,176,92.8,174.7,110.1z"/>
</g>
</svg>
