<?xml version="1.0" encoding="utf-8"?>
<!-- Generator: Adobe Illustrator 22.0.1, SVG Export Plug-In . SVG Version: 6.00 Build 0)  -->
<svg version="1.1" id="Layer_1" xmlns="http://www.w3.org/2000/svg" xmlns:xlink="http://www.w3.org/1999/xlink" x="0px" y="0px"
	 viewBox="0 0 453.8 429.3" style="enable-background:new 0 0 453.8 429.3;" xml:space="preserve">
<style type="text/css">
	.st0{fill:#A0B3D9;}
</style>
<g>
	<path class="st0" d="M238.1,10.1c6.9,1,13.9,1.8,20.8,3.1c29.9,5.6,56.2,18.6,78.9,38.8c29.6,26.2,47.7,59,54.1,97.9
		c1.6,9.7,2.2,19.6,2.2,29.4c0.2,60.6,0.1,121.2,0.1,181.8c0,21.9-8.3,39.3-27.5,50.8c-7.4,4.5-15.6,7.1-24.3,7.2
		c-38.4,0.2-76.7,0.1-115.4,0.1c0-12.2,0-24.4,0-37c43,0,86.2,0,129.6,0c0-6.3,0-12.2,0-18.6c-24.4,0-49,0-73.8,0
		c0-49.8,0-99.1,0-148.8c24.6,0,49,0,73.4,0c0.3-0.6,0.6-1,0.6-1.3c-0.2-20.4,1.4-40.8-2.4-61c-4-21.6-13-41.1-27.1-58
		c-19.8-23.9-45.1-39.2-75.7-44.8c-39.8-7.3-76.1,1.3-107.6,26.8c-26.1,21.1-42,48.8-45.9,82.3c-2.1,18.3-1.7,36.9-2.4,55.6
		c25.5,0,50,0,74.7,0c0,49.6,0,99,0,148.5c-0.6,0.1-1.4,0.3-2.1,0.3c-18.4,0-36.8,0.2-55.1-0.1c-23.7-0.4-43.6-14.9-50.9-37.3
		c-1.9-6-2.9-12.5-2.9-18.8c-0.2-45.8-0.7-91.7,0.3-137.5c0.9-39.5,15.7-74.1,41.9-103.7c26.7-30,60.1-47.7,99.7-54.1
		c4.7-0.8,9.4-1.3,14.2-1.9C223.2,10.1,230.7,10.1,238.1,10.1z"/>
</g>
</svg>
