<?xml version="1.0" encoding="utf-8"?>
<!-- Generator: Adobe Illustrator 22.0.1, SVG Export Plug-In . SVG Version: 6.00 Build 0)  -->
<svg version="1.1" id="Layer_1" xmlns="http://www.w3.org/2000/svg" xmlns:xlink="http://www.w3.org/1999/xlink" x="0px" y="0px"
	 viewBox="0 0 265.9 435.3" style="enable-background:new 0 0 265.9 435.3;" xml:space="preserve">
<style type="text/css">
	.st0{fill:#FFFFFF;}
	.st1{fill:none;stroke:#FFFFFF;stroke-width:13.2355;stroke-miterlimit:10;}
</style>
<rect x="12.5" y="24.5" class="st0" width="229.4" height="28.3"/>
<rect x="12.5" y="391.4" class="st0" width="229.4" height="28.3"/>
<path class="st1" d="M212.8,31.3v48.7c0,33.1-11.6,65.2-32.9,90.6l-24.5,29.3c-10.2,12.2-10.1,30,0.3,42l23.1,26.9
	c21.9,25.6,34,58.2,34,91.9v44.1"/>
<path class="st1" d="M43.3,31.3v48.7c0,33.1,11.6,65.2,32.9,90.6l24.5,29.3c10.2,12.2,10.1,30-0.3,42l-23.1,26.9
	c-21.9,25.6-34,58.2-34,91.9v44.1"/>
<path class="st0" d="M57.4,393.1c64.6,0.1,79.5,0.8,139.5,0c0-51.5-25.7-90.5-69.8-93.2C88.7,297.5,57.4,341.6,57.4,393.1z"/>
<path class="st0" d="M197,83c-64-50.2-78.7,49.1-139.5,0c0,40.8,23.2,81,45.2,93.9c16.5,11.8,14.7,41.8,24.5,41.8
	c10.4,0,8.9-31.1,27.3-45.1C178.3,155.3,197,123.6,197,83z"/>
<circle class="st0" cx="127.2" cy="243.4" r="11"/>
</svg>
