<?xml version="1.0" encoding="utf-8"?>
<!-- Generator: Adobe Illustrator 22.0.1, SVG Export Plug-In . SVG Version: 6.00 Build 0)  -->
<svg version="1.1" id="Layer_1" xmlns="http://www.w3.org/2000/svg" xmlns:xlink="http://www.w3.org/1999/xlink" x="0px" y="0px"
	 viewBox="0 0 541.9 441.3" style="enable-background:new 0 0 541.9 441.3;" xml:space="preserve">
<style type="text/css">
	.st0{fill:#FFFFFF;}
</style>
<g>
	<path class="st0" d="M15.7,288.7C18,276.6,25.2,267,31.6,257c23.1-36.3,46.2-72.6,69.1-109.1c6.3-10.1,14.7-17.3,25.7-21.9
		c16.8-7.1,33.5-14.5,50.3-21.8c6.5-2.9,13.3-3.7,21.2-3C143.8,178.5,90.1,255.2,36.3,332c-10.4-6.8-16.5-16.1-19.4-27.7
		c-0.3-1.2-0.8-2.4-1.2-3.6C15.7,296.7,15.7,292.7,15.7,288.7z"/>
	<path class="st0" d="M314.2,143.9c17.3,8.4,34.3,16.6,51.3,24.8c12.1,5.9,24.3,11.5,36.3,17.6c5.2,2.7,10.4,3.9,16.2,3.6
		c6.1-0.3,12.2-0.1,18.9-0.1c0,2.1,0,3.7,0,5.3c0,59.5,0,119.1,0.1,178.6c0,4-1.2,5.8-4.8,7.3c-62.7,26.5-124.5,24.8-185.1-6.3
		c-7.2-3.7-14.2-5.5-22.2-5.3c-24.3,0.4-48.6,0.2-72.8,0.1c-20.2-0.1-37.6-11.8-43.5-29.1c-10.4-30.9,10.4-60.3,43.2-60.6
		c24.3-0.2,48.6-0.1,72.8,0c32.2,0.1,60.2-10.3,83.9-32.2c7.8-7.2,8.9-16,2.7-22.8c-6.1-6.7-15.1-6.6-22.9,0.7
		c-11.7,10.9-25.3,18.1-40.9,21.7c-1.6,0.4-3.2,0.5-6.1,1C266,212.8,290,178.5,314.2,143.9z"/>
	<path class="st0" d="M466.8,190c15.8,0,31.1-0.3,46.3,0.1c7.3,0.2,12.8,6.3,13.5,13.7c0.1,1.5,0.1,3,0.1,4.5
		c0,60-0.1,120.1,0.1,180.1c0,7.7-2.5,13.3-8.9,17.7c-8.9,6.2-17.5,12.7-26,19.3c-5.2,4-10.6,5.4-16.7,2.3
		c-6.2-3.1-8.5-8.5-8.4-15.2c0.1-20,0-39.9,0-59.9c0-52,0-104.1,0-156.1C466.8,194.6,466.8,192.6,466.8,190z"/>
	<path class="st0" d="M250.7,77.9c16.5,11.5,32.5,22.8,48.8,34.2c-1,1.6-1.8,3-2.7,4.3c-30.2,43.2-60.4,86.3-90.6,129.5
		c-1.9,2.7-3.8,4-7.2,3.9c-7.6-0.3-15.3-0.2-22.9-0.1c-15.7,0.3-31.6-1.7-47.6,2.6C169.2,194.4,209.8,136.4,250.7,77.9z"/>
	<path class="st0" d="M267.9,53.4c8.9-12.7,17.3-24.8,25.9-36.8c5-6.9,13.2-8.4,20.3-3.8c8.6,5.7,17,11.6,25.3,17.7
		c6.3,4.7,8.1,12.7,3.9,19.1C334.9,62.4,326,74.8,317,87.8C300.6,76.2,284.4,65,267.9,53.4z"/>
	<path class="st0" d="M75.9,329.1c1.9,23.4,12.3,42.2,31.3,56.6c-4.4,3.3-8.4,6.3-12.3,9.2c-8.3,6.1-16.5,12.4-24.9,18.4
		c-6.1,4.3-12.8,4.4-18.1,0.5c-5.2-3.7-7.4-9.8-5.4-16.9c4.2-14.9,7.9-29.9,13.4-44.3c3.2-8.5,9.6-15.8,14.5-23.6
		C74.9,329.1,75.4,329.1,75.9,329.1z"/>
	<path class="st0" d="M135.7,399.2c15.1,0,29.6,0,44.3,0c1.3,11.2-0.5,20.4-9.9,26.5c-7.8,5.1-16.1,5.2-24,0.2
		C135.9,419.6,134.6,409.6,135.7,399.2z"/>
	<path class="st0" d="M210.6,400.4c16.9-5,29.6,5.1,43.4,10.6c-2.3,12.3-13,20.1-24.6,18.2C216.1,427,208.9,415.9,210.6,400.4z"/>
</g>
</svg>
