<?xml version="1.0" encoding="utf-8"?>
<!-- Generator: Adobe Illustrator 22.0.1, SVG Export Plug-In . SVG Version: 6.00 Build 0)  -->
<svg version="1.1" id="Layer_1" xmlns="http://www.w3.org/2000/svg" xmlns:xlink="http://www.w3.org/1999/xlink" x="0px" y="0px"
	 viewBox="0 0 24 24" style="enable-background:new 0 0 24 24;" xml:space="preserve">
<style type="text/css">
	.st0{fill:none;}
	.st1{fill:#FFFFFF;}
</style>
<g>
	<rect y="0" class="st0" width="24" height="24"/>
</g>
<g>
	<g>
		<circle class="st1" cx="12" cy="6" r="2"/>
		<path class="st1" d="M21,16v-2c-2.2,0-4.2-1-5.6-2.7l-1.3-1.6C13.7,9.3,13.1,9,12.5,9h-1.1c-0.6,0-1.1,0.3-1.5,0.7l-1.3,1.6
			C7.2,13,5.2,14,3,14v2c2.8,0,5.2-1.2,7-3.3V15l-3.9,1.5C5.4,16.8,5,17.5,5,18.2c0,1,0.8,1.8,1.8,1.8H9v-0.5c0-1.4,1.1-2.5,2.5-2.5
			h3c0.3,0,0.5,0.2,0.5,0.5S14.8,18,14.5,18h-3c-0.8,0-1.5,0.7-1.5,1.5V20h7.2c1,0,1.8-0.8,1.8-1.8c0-0.7-0.5-1.4-1.1-1.7L14,15
			v-2.3C15.8,14.8,18.2,16,21,16z"/>
	</g>
</g>
</svg>
